<svg xmlns="http://www.w3.org/2000/svg" xmlns:xlink="http://www.w3.org/1999/xlink" contentStyleType="text/css" height="713px" preserveAspectRatio="none" style="width:822px;height:713px;background:#FFFFFF;" version="1.1" viewBox="0 0 822 713" width="822px" zoomAndPan="magnify"><defs/><g><line style="stroke:#181818;stroke-width:0.5;stroke-dasharray:5.0,5.0;" x1="30" x2="30" y1="40.9531" y2="673.0625"/><line style="stroke:#181818;stroke-width:0.5;stroke-dasharray:5.0,5.0;" x1="125.5" x2="125.5" y1="40.9531" y2="673.0625"/><line style="stroke:#181818;stroke-width:0.5;stroke-dasharray:5.0,5.0;" x1="222" x2="222" y1="40.9531" y2="673.0625"/><line style="stroke:#181818;stroke-width:0.5;stroke-dasharray:5.0,5.0;" x1="318" x2="318" y1="40.9531" y2="673.0625"/><line style="stroke:#181818;stroke-width:0.5;stroke-dasharray:5.0,5.0;" x1="404" x2="404" y1="40.9531" y2="673.0625"/><line style="stroke:#181818;stroke-width:0.5;stroke-dasharray:5.0,5.0;" x1="500" x2="500" y1="40.9531" y2="673.0625"/><line style="stroke:#181818;stroke-width:0.5;stroke-dasharray:5.0,5.0;" x1="596" x2="596" y1="40.9531" y2="673.0625"/><line style="stroke:#181818;stroke-width:0.5;stroke-dasharray:5.0,5.0;" x1="684" x2="684" y1="40.9531" y2="673.0625"/><line style="stroke:#181818;stroke-width:0.5;stroke-dasharray:5.0,5.0;" x1="780" x2="780" y1="40.9531" y2="673.0625"/><rect fill="#E2E2F0" height="34.9531" rx="2.5" ry="2.5" style="stroke:#181818;stroke-width:0.5;" width="48" x="6" y="5"/><text fill="#000000" font-family="&#24605;&#28304;&#40657;&#20307;" font-size="18" lengthAdjust="spacing" textLength="34" x="13" y="28.708">App</text><rect fill="#E2E2F0" height="34.9531" rx="2.5" ry="2.5" style="stroke:#181818;stroke-width:0.5;" width="48" x="6" y="672.0625"/><text fill="#000000" font-family="&#24605;&#28304;&#40657;&#20307;" font-size="18" lengthAdjust="spacing" textLength="34" x="13" y="695.7705">App</text><rect fill="#E2E2F0" height="34.9531" rx="2.5" ry="2.5" style="stroke:#181818;stroke-width:0.5;" width="87" x="82.5" y="5"/><text fill="#000000" font-family="&#24605;&#28304;&#40657;&#20307;" font-size="18" lengthAdjust="spacing" textLength="73" x="89.5" y="28.708">Window</text><rect fill="#E2E2F0" height="34.9531" rx="2.5" ry="2.5" style="stroke:#181818;stroke-width:0.5;" width="87" x="82.5" y="672.0625"/><text fill="#000000" font-family="&#24605;&#28304;&#40657;&#20307;" font-size="18" lengthAdjust="spacing" textLength="73" x="89.5" y="695.7705">Window</text><rect fill="#E2E2F0" height="34.9531" rx="2.5" ry="2.5" style="stroke:#181818;stroke-width:0.5;" width="84" x="180" y="5"/><text fill="#000000" font-family="&#24605;&#28304;&#40657;&#20307;" font-size="18" lengthAdjust="spacing" textLength="70" x="187" y="28.708">Button1</text><rect fill="#E2E2F0" height="34.9531" rx="2.5" ry="2.5" style="stroke:#181818;stroke-width:0.5;" width="84" x="180" y="672.0625"/><text fill="#000000" font-family="&#24605;&#28304;&#40657;&#20307;" font-size="18" lengthAdjust="spacing" textLength="70" x="187" y="695.7705">Button1</text><rect fill="#E2E2F0" height="34.9531" rx="2.5" ry="2.5" style="stroke:#181818;stroke-width:0.5;" width="72" x="282" y="5"/><text fill="#000000" font-family="&#24605;&#28304;&#40657;&#20307;" font-size="18" lengthAdjust="spacing" textLength="58" x="289" y="28.708">Label1</text><rect fill="#E2E2F0" height="34.9531" rx="2.5" ry="2.5" style="stroke:#181818;stroke-width:0.5;" width="72" x="282" y="672.0625"/><text fill="#000000" font-family="&#24605;&#28304;&#40657;&#20307;" font-size="18" lengthAdjust="spacing" textLength="58" x="289" y="695.7705">Label1</text><rect fill="#E2E2F0" height="34.9531" rx="2.5" ry="2.5" style="stroke:#181818;stroke-width:0.5;" width="80" x="364" y="5"/><text fill="#000000" font-family="&#24605;&#28304;&#40657;&#20307;" font-size="18" lengthAdjust="spacing" textLength="66" x="371" y="28.708">Group1</text><rect fill="#E2E2F0" height="34.9531" rx="2.5" ry="2.5" style="stroke:#181818;stroke-width:0.5;" width="80" x="364" y="672.0625"/><text fill="#000000" font-family="&#24605;&#28304;&#40657;&#20307;" font-size="18" lengthAdjust="spacing" textLength="66" x="371" y="695.7705">Group1</text><rect fill="#E2E2F0" height="34.9531" rx="2.5" ry="2.5" style="stroke:#181818;stroke-width:0.5;" width="84" x="458" y="5"/><text fill="#000000" font-family="&#24605;&#28304;&#40657;&#20307;" font-size="18" lengthAdjust="spacing" textLength="70" x="465" y="28.708">Button2</text><rect fill="#E2E2F0" height="34.9531" rx="2.5" ry="2.5" style="stroke:#181818;stroke-width:0.5;" width="84" x="458" y="672.0625"/><text fill="#000000" font-family="&#24605;&#28304;&#40657;&#20307;" font-size="18" lengthAdjust="spacing" textLength="70" x="465" y="695.7705">Button2</text><rect fill="#E2E2F0" height="34.9531" rx="2.5" ry="2.5" style="stroke:#181818;stroke-width:0.5;" width="72" x="560" y="5"/><text fill="#000000" font-family="&#24605;&#28304;&#40657;&#20307;" font-size="18" lengthAdjust="spacing" textLength="58" x="567" y="28.708">Label2</text><rect fill="#E2E2F0" height="34.9531" rx="2.5" ry="2.5" style="stroke:#181818;stroke-width:0.5;" width="72" x="560" y="672.0625"/><text fill="#000000" font-family="&#24605;&#28304;&#40657;&#20307;" font-size="18" lengthAdjust="spacing" textLength="58" x="567" y="695.7705">Label2</text><rect fill="#E2E2F0" height="34.9531" rx="2.5" ry="2.5" style="stroke:#181818;stroke-width:0.5;" width="84" x="642" y="5"/><text fill="#000000" font-family="&#24605;&#28304;&#40657;&#20307;" font-size="18" lengthAdjust="spacing" textLength="70" x="649" y="28.708">Button3</text><rect fill="#E2E2F0" height="34.9531" rx="2.5" ry="2.5" style="stroke:#181818;stroke-width:0.5;" width="84" x="642" y="672.0625"/><text fill="#000000" font-family="&#24605;&#28304;&#40657;&#20307;" font-size="18" lengthAdjust="spacing" textLength="70" x="649" y="695.7705">Button3</text><rect fill="#E2E2F0" height="34.9531" rx="2.5" ry="2.5" style="stroke:#181818;stroke-width:0.5;" width="72" x="744" y="5"/><text fill="#000000" font-family="&#24605;&#28304;&#40657;&#20307;" font-size="18" lengthAdjust="spacing" textLength="58" x="751" y="28.708">Label3</text><rect fill="#E2E2F0" height="34.9531" rx="2.5" ry="2.5" style="stroke:#181818;stroke-width:0.5;" width="72" x="744" y="672.0625"/><text fill="#000000" font-family="&#24605;&#28304;&#40657;&#20307;" font-size="18" lengthAdjust="spacing" textLength="58" x="751" y="695.7705">Label3</text><polygon fill="#181818" points="114,73.9063,124,77.9063,114,81.9063,118,77.9063" style="stroke:#181818;stroke-width:1.0;"/><line style="stroke:#181818;stroke-width:1.0;" x1="30" x2="120" y1="77.9063" y2="77.9063"/><text fill="#000000" font-family="&#24605;&#28304;&#40657;&#20307;" font-size="18" lengthAdjust="spacing" textLength="72" x="37" y="71.6611">&#35302;&#21457;&#20107;&#20214;</text><polygon fill="#181818" points="210,108.8594,220,112.8594,210,116.8594,214,112.8594" style="stroke:#181818;stroke-width:1.0;"/><line style="stroke:#181818;stroke-width:1.0;" x1="126" x2="216" y1="112.8594" y2="112.8594"/><text fill="#000000" font-family="&#24605;&#28304;&#40657;&#20307;" font-size="18" lengthAdjust="spacing" textLength="72" x="133" y="106.6143">&#20256;&#36882;&#20107;&#20214;</text><polygon fill="#181818" points="306,167.7656,316,171.7656,306,175.7656,310,171.7656" style="stroke:#181818;stroke-width:1.0;"/><line style="stroke:#181818;stroke-width:1.0;" x1="222" x2="312" y1="171.7656" y2="171.7656"/><text fill="#000000" font-family="&#24605;&#28304;&#40657;&#20307;" font-size="18" lengthAdjust="spacing" textLength="72" x="229" y="165.5205">&#20256;&#36882;&#20107;&#20214;</text><path d="M323,125.8594 L323,197.8594 L542,197.8594 L542,135.8594 L532,125.8594 L323,125.8594 " fill="#FEFFDD" style="stroke:#181818;stroke-width:0.5;"/><path d="M532,125.8594 L532,135.8594 L542,135.8594 L532,125.8594 " fill="#FEFFDD" style="stroke:#181818;stroke-width:0.5;"/><text fill="#000000" font-family="&#24605;&#28304;&#40657;&#20307;" font-size="18" lengthAdjust="spacing" textLength="198" x="329" y="147.5674">&#23545;&#35937;&#22914;&#26524;&#20855;&#26377;&#29238;&#23376;&#20851;&#31995;&#65292;</text><text fill="#000000" font-family="&#24605;&#28304;&#40657;&#20307;" font-size="18" lengthAdjust="spacing" textLength="180" x="329" y="168.5205">&#21017;&#20107;&#20214;&#35302;&#21457;&#39034;&#24207;&#19968;&#23450;&#26159;</text><text fill="#000000" font-family="&#24605;&#28304;&#40657;&#20307;" font-size="18" lengthAdjust="spacing" textLength="144" x="329" y="189.4736">&#20174;&#29238;&#23545;&#35937;&#21040;&#23376;&#23545;&#35937;</text><polygon fill="#181818" points="233,250.625,223,254.625,233,258.625,229,254.625" style="stroke:#181818;stroke-width:1.0;"/><line style="stroke:#181818;stroke-width:1.0;" x1="227" x2="317" y1="254.625" y2="254.625"/><text fill="#000000" font-family="&#24605;&#28304;&#40657;&#20307;" font-size="18" lengthAdjust="spacing" textLength="72" x="239" y="248.3799">&#20107;&#20214;&#21709;&#24212;</text><path d="M5,208.7188 L5,280.7188 L217,280.7188 L217,218.7188 L207,208.7188 L5,208.7188 " fill="#FEFFDD" style="stroke:#181818;stroke-width:0.5;"/><path d="M207,208.7188 L207,218.7188 L217,218.7188 L207,208.7188 " fill="#FEFFDD" style="stroke:#181818;stroke-width:0.5;"/><text fill="#000000" font-family="&#24605;&#28304;&#40657;&#20307;" font-size="18" lengthAdjust="spacing" textLength="191" x="11" y="230.4268">&#20855;&#26377;&#21516;&#19968;&#29238;&#23545;&#35937;&#30340;Block</text><text fill="#000000" font-family="&#24605;&#28304;&#40657;&#20307;" font-size="18" lengthAdjust="spacing" textLength="180" x="11" y="251.3799">&#20107;&#20214;&#35302;&#21457;&#39034;&#24207;&#26159;&#30001;&#20854;&#30340;</text><text fill="#000000" font-family="&#24605;&#28304;&#40657;&#20307;" font-size="18" lengthAdjust="spacing" textLength="94" x="11" y="272.333">zindex&#20915;&#23450;</text><polygon fill="#181818" points="392,309.5313,402,313.5313,392,317.5313,396,313.5313" style="stroke:#181818;stroke-width:1.0;"/><line style="stroke:#181818;stroke-width:1.0;" x1="222" x2="398" y1="313.5313" y2="313.5313"/><text fill="#000000" font-family="&#24605;&#28304;&#40657;&#20307;" font-size="18" lengthAdjust="spacing" textLength="72" x="229" y="307.2861">&#20256;&#36882;&#20107;&#20214;</text><polygon fill="#181818" points="488,344.4844,498,348.4844,488,352.4844,492,348.4844" style="stroke:#181818;stroke-width:1.0;"/><line style="stroke:#181818;stroke-width:1.0;" x1="404" x2="494" y1="348.4844" y2="348.4844"/><text fill="#000000" font-family="&#24605;&#28304;&#40657;&#20307;" font-size="18" lengthAdjust="spacing" textLength="72" x="411" y="342.2393">&#20256;&#36882;&#20107;&#20214;</text><polygon fill="#181818" points="584,379.4375,594,383.4375,584,387.4375,588,383.4375" style="stroke:#181818;stroke-width:1.0;"/><line style="stroke:#181818;stroke-width:1.0;" x1="500" x2="590" y1="383.4375" y2="383.4375"/><text fill="#000000" font-family="&#24605;&#28304;&#40657;&#20307;" font-size="18" lengthAdjust="spacing" textLength="72" x="507" y="377.1924">&#20256;&#36882;&#20107;&#20214;</text><polygon fill="#181818" points="511,427.8672,501,431.8672,511,435.8672,507,431.8672" style="stroke:#181818;stroke-width:1.0;"/><line style="stroke:#181818;stroke-width:1.0;" x1="505" x2="595" y1="431.8672" y2="431.8672"/><text fill="#000000" font-family="&#24605;&#28304;&#40657;&#20307;" font-size="18" lengthAdjust="spacing" textLength="72" x="517" y="425.6221">&#20107;&#20214;&#21709;&#24212;</text><path d="M182,396.4375 L182,447.4375 L495,447.4375 L495,406.4375 L485,396.4375 L182,396.4375 " fill="#FEFFDD" style="stroke:#181818;stroke-width:0.5;"/><path d="M485,396.4375 L485,406.4375 L495,406.4375 L485,396.4375 " fill="#FEFFDD" style="stroke:#181818;stroke-width:0.5;"/><text fill="#000000" font-family="&#24605;&#28304;&#40657;&#20307;" font-size="18" lengthAdjust="spacing" textLength="292" x="188" y="418.1455">&#22914;&#26524;zindex&#30456;&#21516;&#65292;&#20107;&#20214;&#35302;&#21457;&#39034;&#24207;&#26159;&#19981;</text><text fill="#000000" font-family="&#24605;&#28304;&#40657;&#20307;" font-size="18" lengthAdjust="spacing" textLength="288" x="188" y="439.0986">&#30830;&#23450;&#30340;&#65292;&#23427;&#26377;&#21487;&#33021;&#26159;&#23545;&#35937;&#30340;&#28155;&#21152;&#39034;&#24207;</text><polygon fill="#181818" points="672,476.2969,682,480.2969,672,484.2969,676,480.2969" style="stroke:#181818;stroke-width:1.0;"/><line style="stroke:#181818;stroke-width:1.0;" x1="500" x2="678" y1="480.2969" y2="480.2969"/><text fill="#000000" font-family="&#24605;&#28304;&#40657;&#20307;" font-size="18" lengthAdjust="spacing" textLength="72" x="507" y="474.0518">&#20256;&#36882;&#20107;&#20214;</text><polygon fill="#181818" points="768,511.25,778,515.25,768,519.25,772,515.25" style="stroke:#181818;stroke-width:1.0;"/><line style="stroke:#181818;stroke-width:1.0;" x1="684" x2="774" y1="515.25" y2="515.25"/><text fill="#000000" font-family="&#24605;&#28304;&#40657;&#20307;" font-size="18" lengthAdjust="spacing" textLength="72" x="691" y="509.0049">&#20256;&#36882;&#20107;&#20214;</text><polygon fill="#181818" points="695,546.2031,685,550.2031,695,554.2031,691,550.2031" style="stroke:#181818;stroke-width:1.0;"/><line style="stroke:#181818;stroke-width:1.0;" x1="689" x2="779" y1="550.2031" y2="550.2031"/><text fill="#000000" font-family="&#24605;&#28304;&#40657;&#20307;" font-size="18" lengthAdjust="spacing" textLength="72" x="701" y="543.958">&#20107;&#20214;&#21709;&#24212;</text><polygon fill="#181818" points="415,581.1563,405,585.1563,415,589.1563,411,585.1563" style="stroke:#181818;stroke-width:1.0;"/><line style="stroke:#181818;stroke-width:1.0;" x1="409" x2="683" y1="585.1563" y2="585.1563"/><text fill="#000000" font-family="&#24605;&#28304;&#40657;&#20307;" font-size="18" lengthAdjust="spacing" textLength="72" x="421" y="578.9111">&#20107;&#20214;&#21709;&#24212;</text><polygon fill="#181818" points="137,616.1094,127,620.1094,137,624.1094,133,620.1094" style="stroke:#181818;stroke-width:1.0;"/><line style="stroke:#181818;stroke-width:1.0;" x1="131" x2="403" y1="620.1094" y2="620.1094"/><text fill="#000000" font-family="&#24605;&#28304;&#40657;&#20307;" font-size="18" lengthAdjust="spacing" textLength="72" x="143" y="613.8643">&#20107;&#20214;&#21709;&#24212;</text><polygon fill="#181818" points="41,651.0625,31,655.0625,41,659.0625,37,655.0625" style="stroke:#181818;stroke-width:1.0;"/><line style="stroke:#181818;stroke-width:1.0;" x1="35" x2="125" y1="655.0625" y2="655.0625"/><text fill="#000000" font-family="&#24605;&#28304;&#40657;&#20307;" font-size="18" lengthAdjust="spacing" textLength="72" x="47" y="648.8174">&#20107;&#20214;&#21709;&#24212;</text><!--SRC=[VPCzJy9G58Rt_eeRTWTWCGuc4gEBSN5mhdBHXj8sKA9X8Y865GI4mGyqiE0aI4W0M_WtlIrC_WLFUsi_Q6EdvjpddFE-RszpQKwGs2oRGRiunUPvUKyKv4CsWr54BxxfIcEbDhL5AyBami0Zhe1HT9DXTYG9RMoZOqv8YXTe2oq_-gJUr9HxJPqmTXNE4tbP5eKe0Dgykoe-si1V6OW3zWJp0K0GPOootDcvp21uoF1xEUgH_fN-tY7bgTwvDIeJyjaWvR4nLd_cLKfLdcax5RFgAKIfQxCY6RpeJqCBqTG7ivEEgtoP8wnt1Wj9P2vbR3r-xTPKqgeHfKsbyJXbAxFKa4OLzZYJZPVh12-UfkdAW2GGOxH7f3m1pa8Aa1U-93TZKEegyOIqdnNpKY0ak-f8ZON777DY3W1srJ_X7xFM1w1gZTSPk8ReG_rfivhLOVG6u0by0aW69JEg-d1PMW3YHALFLNBNfQthxZtQuk7kuewxUAYx-De4hplF13TXB-0cx5nqtxbxqSt_mN_u2m00]--></g></svg>