<svg xmlns="http://www.w3.org/2000/svg" xmlns:xlink="http://www.w3.org/1999/xlink" contentStyleType="text/css" height="441px" preserveAspectRatio="none" style="width:410px;height:441px;background:#FFFFFF;" version="1.1" viewBox="0 0 410 441" width="410px" zoomAndPan="magnify"><defs/><g><!--class Window--><g id="elem_Window"><rect codeLine="4" fill="#F1F1F1" height="48" id="Window" rx="2.5" ry="2.5" style="stroke:#181818;stroke-width:0.5;" width="95" x="55.5" y="170.88"/><ellipse cx="70.5" cy="186.88" fill="#ADD1B2" rx="11" ry="11" style="stroke:#181818;stroke-width:1.0;"/><path d="M72.9531,192.5363 Q72.4063,192.8175 71.7969,192.9581 Q71.2031,193.1144 70.5313,193.1144 Q68.1719,193.1144 66.9219,191.5519 Q65.6875,189.9894 65.6875,187.0519 Q65.6875,184.1144 66.9219,182.5675 Q68.1719,181.005 70.5313,181.005 Q71.2031,181.005 71.8125,181.1456 Q72.4219,181.2863 72.9531,181.5675 L72.9531,184.13 Q72.3594,183.5831 71.7969,183.3331 Q71.2344,183.0675 70.6406,183.0675 Q69.375,183.0675 68.7344,184.0831 Q68.0938,185.0831 68.0938,187.0519 Q68.0938,189.0206 68.7344,190.0363 Q69.375,191.0363 70.6406,191.0363 Q71.2344,191.0363 71.7969,190.7863 Q72.3594,190.5206 72.9531,189.9738 L72.9531,192.5363 Z " fill="#000000"/><text fill="#000000" font-family="JetBrains Mono" font-size="16" lengthAdjust="spacing" textLength="63" x="84.5" y="192.4191">Window</text><line style="stroke:#181818;stroke-width:0.5;" x1="56.5" x2="149.5" y1="202.88" y2="202.88"/><line style="stroke:#181818;stroke-width:0.5;" x1="56.5" x2="149.5" y1="210.88" y2="210.88"/></g><!--class Block--><g id="elem_Block"><rect codeLine="5" fill="#F1F1F1" height="103.875" id="Block" rx="2.5" ry="2.5" style="stroke:#181818;stroke-width:0.5;" width="259" x="144.5" y="7"/><ellipse cx="248.75" cy="23" fill="#ADD1B2" rx="11" ry="11" style="stroke:#181818;stroke-width:1.0;"/><path d="M251.2031,28.6563 Q250.6563,28.9375 250.0469,29.0781 Q249.4531,29.2344 248.7813,29.2344 Q246.4219,29.2344 245.1719,27.6719 Q243.9375,26.1094 243.9375,23.1719 Q243.9375,20.2344 245.1719,18.6875 Q246.4219,17.125 248.7813,17.125 Q249.4531,17.125 250.0625,17.2656 Q250.6719,17.4063 251.2031,17.6875 L251.2031,20.25 Q250.6094,19.7031 250.0469,19.4531 Q249.4844,19.1875 248.8906,19.1875 Q247.625,19.1875 246.9844,20.2031 Q246.3438,21.2031 246.3438,23.1719 Q246.3438,25.1406 246.9844,26.1563 Q247.625,27.1563 248.8906,27.1563 Q249.4844,27.1563 250.0469,26.9063 Q250.6094,26.6406 251.2031,26.0938 L251.2031,28.6563 Z " fill="#000000"/><text fill="#000000" font-family="JetBrains Mono" font-size="16" lengthAdjust="spacing" textLength="42" x="269.25" y="28.5391">Block</text><line style="stroke:#181818;stroke-width:0.5;" x1="145.5" x2="402.5" y1="39" y2="39"/><text fill="#000000" font-family="JetBrains Mono" font-size="16" lengthAdjust="spacing" textLength="15" x="150.5" y="57.8516">...</text><line style="stroke:#181818;stroke-width:0.5;" x1="145.5" x2="402.5" y1="65.625" y2="65.625"/><polygon fill="#FFFF44" points="155.5,75.4375,159.5,79.4375,155.5,83.4375,151.5,79.4375" style="stroke:#B38D22;stroke-width:1.0;"/><text fill="#000000" font-family="JetBrains Mono" font-size="16" lengthAdjust="spacing" textLength="174" x="164.5" y="84.4766">paintEvent(event):void</text><polygon fill="#FFFF44" points="155.5,94.0625,159.5,98.0625,155.5,102.0625,151.5,98.0625" style="stroke:#B38D22;stroke-width:1.0;"/><text fill="#000000" font-family="JetBrains Mono" font-size="16" lengthAdjust="spacing" textLength="233" x="164.5" y="103.1016">mousePressEvent(event):void</text></g><!--class Button--><g id="elem_Button"><rect codeLine="10" fill="#F1F1F1" height="48" id="Button" rx="2.5" ry="2.5" style="stroke:#181818;stroke-width:0.5;" width="85" x="102.5" y="278.88"/><ellipse cx="117.5" cy="294.88" fill="#ADD1B2" rx="11" ry="11" style="stroke:#181818;stroke-width:1.0;"/><path d="M119.9531,300.5363 Q119.4063,300.8175 118.7969,300.9581 Q118.2031,301.1144 117.5313,301.1144 Q115.1719,301.1144 113.9219,299.5519 Q112.6875,297.9894 112.6875,295.0519 Q112.6875,292.1144 113.9219,290.5675 Q115.1719,289.005 117.5313,289.005 Q118.2031,289.005 118.8125,289.1456 Q119.4219,289.2863 119.9531,289.5675 L119.9531,292.13 Q119.3594,291.5831 118.7969,291.3331 Q118.2344,291.0675 117.6406,291.0675 Q116.375,291.0675 115.7344,292.0831 Q115.0938,293.0831 115.0938,295.0519 Q115.0938,297.0206 115.7344,298.0363 Q116.375,299.0363 117.6406,299.0363 Q118.2344,299.0363 118.7969,298.7863 Q119.3594,298.5206 119.9531,297.9738 L119.9531,300.5363 Z " fill="#000000"/><text fill="#000000" font-family="JetBrains Mono" font-size="16" lengthAdjust="spacing" textLength="53" x="131.5" y="300.4191">Button</text><line style="stroke:#181818;stroke-width:0.5;" x1="103.5" x2="186.5" y1="310.88" y2="310.88"/><line style="stroke:#181818;stroke-width:0.5;" x1="103.5" x2="186.5" y1="318.88" y2="318.88"/></g><!--class Label--><g id="elem_Label"><rect codeLine="11" fill="#F1F1F1" height="48" id="Label" rx="2.5" ry="2.5" style="stroke:#181818;stroke-width:0.5;" width="72" x="109" y="386.88"/><ellipse cx="124" cy="402.88" fill="#ADD1B2" rx="11" ry="11" style="stroke:#181818;stroke-width:1.0;"/><path d="M126.4531,408.5363 Q125.9063,408.8175 125.2969,408.9581 Q124.7031,409.1144 124.0313,409.1144 Q121.6719,409.1144 120.4219,407.5519 Q119.1875,405.9894 119.1875,403.0519 Q119.1875,400.1144 120.4219,398.5675 Q121.6719,397.005 124.0313,397.005 Q124.7031,397.005 125.3125,397.1456 Q125.9219,397.2863 126.4531,397.5675 L126.4531,400.13 Q125.8594,399.5831 125.2969,399.3331 Q124.7344,399.0675 124.1406,399.0675 Q122.875,399.0675 122.2344,400.0831 Q121.5938,401.0831 121.5938,403.0519 Q121.5938,405.0206 122.2344,406.0363 Q122.875,407.0363 124.1406,407.0363 Q124.7344,407.0363 125.2969,406.7863 Q125.8594,406.5206 126.4531,405.9738 L126.4531,408.5363 Z " fill="#000000"/><text fill="#000000" font-family="JetBrains Mono" font-size="16" lengthAdjust="spacing" textLength="40" x="138" y="408.4191">Label</text><line style="stroke:#181818;stroke-width:0.5;" x1="110" x2="180" y1="418.88" y2="418.88"/><line style="stroke:#181818;stroke-width:0.5;" x1="110" x2="180" y1="426.88" y2="426.88"/></g><!--class Group--><g id="elem_Group"><rect codeLine="12" fill="#F1F1F1" height="48" id="Group" rx="2.5" ry="2.5" style="stroke:#181818;stroke-width:0.5;" width="81" x="222.5" y="278.88"/><ellipse cx="237.5" cy="294.88" fill="#ADD1B2" rx="11" ry="11" style="stroke:#181818;stroke-width:1.0;"/><path d="M239.9531,300.5363 Q239.4063,300.8175 238.7969,300.9581 Q238.2031,301.1144 237.5313,301.1144 Q235.1719,301.1144 233.9219,299.5519 Q232.6875,297.9894 232.6875,295.0519 Q232.6875,292.1144 233.9219,290.5675 Q235.1719,289.005 237.5313,289.005 Q238.2031,289.005 238.8125,289.1456 Q239.4219,289.2863 239.9531,289.5675 L239.9531,292.13 Q239.3594,291.5831 238.7969,291.3331 Q238.2344,291.0675 237.6406,291.0675 Q236.375,291.0675 235.7344,292.0831 Q235.0938,293.0831 235.0938,295.0519 Q235.0938,297.0206 235.7344,298.0363 Q236.375,299.0363 237.6406,299.0363 Q238.2344,299.0363 238.7969,298.7863 Q239.3594,298.5206 239.9531,297.9738 L239.9531,300.5363 Z " fill="#000000"/><text fill="#000000" font-family="JetBrains Mono" font-size="16" lengthAdjust="spacing" textLength="49" x="251.5" y="300.4191">Group</text><line style="stroke:#181818;stroke-width:0.5;" x1="223.5" x2="302.5" y1="310.88" y2="310.88"/><line style="stroke:#181818;stroke-width:0.5;" x1="223.5" x2="302.5" y1="318.88" y2="318.88"/></g><!--class App--><g id="elem_App"><rect codeLine="13" fill="#F1F1F1" height="66.625" id="App" rx="2.5" ry="2.5" style="stroke:#181818;stroke-width:0.5;" width="102" x="7" y="25.63"/><ellipse cx="39.55" cy="41.63" fill="#ADD1B2" rx="11" ry="11" style="stroke:#181818;stroke-width:1.0;"/><path d="M42.0031,47.2862 Q41.4563,47.5675 40.8469,47.7081 Q40.2531,47.8644 39.5813,47.8644 Q37.2219,47.8644 35.9719,46.3019 Q34.7375,44.7394 34.7375,41.8019 Q34.7375,38.8644 35.9719,37.3175 Q37.2219,35.755 39.5813,35.755 Q40.2531,35.755 40.8625,35.8956 Q41.4719,36.0362 42.0031,36.3175 L42.0031,38.88 Q41.4094,38.3331 40.8469,38.0831 Q40.2844,37.8175 39.6906,37.8175 Q38.425,37.8175 37.7844,38.8331 Q37.1438,39.8331 37.1438,41.8019 Q37.1438,43.7706 37.7844,44.7862 Q38.425,45.7862 39.6906,45.7862 Q40.2844,45.7862 40.8469,45.5362 Q41.4094,45.2706 42.0031,44.7237 L42.0031,47.2862 Z " fill="#000000"/><text fill="#000000" font-family="JetBrains Mono" font-size="16" lengthAdjust="spacing" textLength="31" x="57.45" y="47.1691">App</text><line style="stroke:#181818;stroke-width:0.5;" x1="8" x2="108" y1="57.63" y2="57.63"/><line style="stroke:#181818;stroke-width:0.5;" x1="8" x2="108" y1="65.63" y2="65.63"/><ellipse cx="18" cy="80.4425" fill="#84BE84" rx="3" ry="3" style="stroke:#038048;stroke-width:1.0;"/><text fill="#000000" font-family="JetBrains Mono" font-size="16" lengthAdjust="spacing" textLength="76" x="27" y="84.4816">run():void</text></g><!--reverse link Block to Window--><g id="link_Block_Window"><path codeLine="16" d="M194.2081,122.4377 C168.2081,142.7977 153.79,154.1 132.96,170.42 " fill="none" id="Block-backto-Window" style="stroke:#181818;stroke-width:1.0;"/><polygon fill="none" points="208.38,111.34,190.5089,117.7137,197.9074,127.1616,208.38,111.34" style="stroke:#181818;stroke-width:1.0;"/></g><!--reverse link Block to Button--><g id="link_Block_Button"><path codeLine="17" d="M238.1718,127.1336 C210.6618,178.7336 177.94,240.1 157.47,278.49 " fill="none" id="Block-backto-Button" style="stroke:#181818;stroke-width:1.0;"/><polygon fill="none" points="246.64,111.25,232.8773,124.3109,243.4664,129.9564,246.64,111.25" style="stroke:#181818;stroke-width:1.0;"/></g><!--reverse link Block to Label--><g id="link_Block_Label"><path codeLine="18" d="M310.7416,127.4378 C338.5416,184.4278 362.83,260.91 321,326.88 C290.34,375.24 223.12,395.95 181.2,404.42 " fill="none" id="Block-backto-Label" style="stroke:#181818;stroke-width:1.0;"/><polygon fill="none" points="302.85,111.26,305.349,130.0684,316.1342,124.8073,302.85,111.26" style="stroke:#181818;stroke-width:1.0;"/></g><!--reverse link Block to Group--><g id="link_Block_Group"><path codeLine="19" d="M270.8511,129.2314 C268.5011,180.8314 265.81,240.1 264.06,278.49 " fill="none" id="Block-backto-Group" style="stroke:#181818;stroke-width:1.0;"/><polygon fill="none" points="271.67,111.25,264.8573,128.9584,276.8449,129.5043,271.67,111.25" style="stroke:#181818;stroke-width:1.0;"/></g><!--reverse link App to Window--><g id="link_App_Window"><path codeLine="21" d="M72.833,104.0847 C80.953,128.2447 87.97,149.15 95.21,170.69 " fill="none" id="App-backto-Window" style="stroke:#181818;stroke-width:1.0;"/><polygon fill="#181818" points="69.01,92.71,67.1299,99.6717,72.833,104.0847,74.7131,97.1231,69.01,92.71" style="stroke:#181818;stroke-width:1.0;"/></g><!--reverse link Window to Button--><g id="link_Window_Button"><path codeLine="22" d="M116.6375,230.2973 C123.6375,247.9773 128.81,261.01 135.8,278.67 " fill="none" id="Window-backto-Button" style="stroke:#181818;stroke-width:1.0;"/><polygon fill="#181818" points="112.22,219.14,110.7096,226.1912,116.6375,230.2973,118.1479,223.2462,112.22,219.14" style="stroke:#181818;stroke-width:1.0;"/></g><!--reverse link Window to Label--><g id="link_Window_Label"><path codeLine="23" d="M89.7687,230.4743 C80.5087,257.1043 73.2,290.4 85,326.88 C92.28,349.38 108.19,370.9 121.8,386.39 " fill="none" id="Window-backto-Label" style="stroke:#181818;stroke-width:1.0;"/><polygon fill="#181818" points="93.71,219.14,87.9613,223.4934,89.7687,230.4743,95.5175,226.1209,93.71,219.14" style="stroke:#181818;stroke-width:1.0;"/></g><!--reverse link Window to Group--><g id="link_Window_Group"><path codeLine="24" d="M148.1148,225.766 C174.7048,243.376 201.06,260.85 227.69,278.49 " fill="none" id="Window-backto-Group" style="stroke:#181818;stroke-width:1.0;"/><polygon fill="#181818" points="138.11,219.14,140.9037,225.7879,148.1148,225.766,145.3211,219.1181,138.11,219.14" style="stroke:#181818;stroke-width:1.0;"/></g><!--reverse link Button to Label--><g id="link_Button_Label"><path codeLine="25" d="M145,339.14 C145,356.82 145,369.01 145,386.67 " fill="none" id="Button-backto-Label" style="stroke:#181818;stroke-width:1.0;"/><polygon fill="#181818" points="145,327.14,141,333.14,145,339.14,149,333.14,145,327.14" style="stroke:#181818;stroke-width:1.0;"/></g><!--SRC=[ROuz2y8m54Nt_8gWIrLQS74G5uiV82g2WtDidn3QveLyLB3slrkRqcPeXeHtSZdtwOmBoHGhw0vUpERcWC9SMG5qSW8JAyQ5fXSKE25wB7hd7w3B5I59phIc3ovIV5TrDyOv9bb5Q7Ecib6PVGd21F2_P-iIUUh-2hGQRWgq7Wz4KKHwfpK6HLznPa_8- -ceqCf-sahfoXVAYg3prQJTYcw-OTZjwnEdzqdRu8EsX936JkU3mpqjwHmUSGuFE8SB3eaV]--></g></svg>