<svg xmlns="http://www.w3.org/2000/svg" xmlns:xlink="http://www.w3.org/1999/xlink" contentStyleType="text/css" height="1748px" preserveAspectRatio="none" style="width:1163px;height:1748px;background:#FFFFFF;" version="1.1" viewBox="0 0 1163 1748" width="1163px" zoomAndPan="magnify"><defs/><g><ellipse cx="587.5" cy="20" fill="#222222" rx="10" ry="10" style="stroke:#222222;stroke-width:1.0;"/><rect fill="#F1F1F1" height="38.625" rx="12.5" ry="12.5" style="stroke:#181818;stroke-width:0.5;" width="84" x="545.5" y="50"/><text fill="#000000" font-family="&#24605;&#28304;&#40657;&#20307;" font-size="16" lengthAdjust="spacing" textLength="64" x="555.5" y="74.8516">&#21551;&#21160;&#31243;&#24207;</text><rect fill="#B0C4DE" height="38.625" rx="12.5" ry="12.5" style="stroke:#181818;stroke-width:0.5;" width="285" x="445" y="152.625"/><text fill="#000000" font-family="&#24605;&#28304;&#40657;&#20307;" font-size="16" lengthAdjust="spacing" textLength="265" x="455" y="177.4766">&#35302;&#21457; Block::paintEvent(PaintEvent)</text><rect fill="#FFFFE0" height="38.625" rx="12.5" ry="12.5" style="stroke:#181818;stroke-width:0.5;" width="116" x="529.5" y="322.9141"/><text fill="#000000" font-family="&#24605;&#28304;&#40657;&#20307;" font-size="16" lengthAdjust="spacing" textLength="96" x="539.5" y="347.7656">&#25429;&#33719;&#38190;&#30424;&#28040;&#24687;</text><polygon fill="#F1F1F1" points="148,441.8906,292,441.8906,304,453.8906,292,465.8906,148,465.8906,136,453.8906,148,441.8906" style="stroke:#181818;stroke-width:0.5;"/><text fill="#000000" font-family="&#24605;&#28304;&#40657;&#20307;" font-size="16" lengthAdjust="spacing" textLength="16" x="224" y="480.7422">&#26159;</text><text fill="#000000" font-family="&#24605;&#28304;&#40657;&#20307;" font-size="16" lengthAdjust="spacing" textLength="144" x="148" y="459.4297">&#26159;&#21542;&#20026;&#25353;&#38190;&#25353;&#19979;&#28040;&#24687;</text><rect fill="#B0C4DE" height="38.625" rx="12.5" ry="12.5" style="stroke:#181818;stroke-width:0.5;" width="328" x="56" y="502.2422"/><text fill="#000000" font-family="&#24605;&#28304;&#40657;&#20307;" font-size="16" lengthAdjust="spacing" textLength="308" x="66" y="527.0938">&#35302;&#21457; Block::keyPressEvent(Key,KeyFlag)</text><polygon fill="#F1F1F1" points="503.5,441.8906,647.5,441.8906,659.5,453.8906,647.5,465.8906,503.5,465.8906,491.5,453.8906,503.5,441.8906" style="stroke:#181818;stroke-width:0.5;"/><text fill="#000000" font-family="&#24605;&#28304;&#40657;&#20307;" font-size="16" lengthAdjust="spacing" textLength="16" x="579.5" y="480.7422">&#26159;</text><text fill="#000000" font-family="&#24605;&#28304;&#40657;&#20307;" font-size="16" lengthAdjust="spacing" textLength="144" x="503.5" y="459.4297">&#26159;&#21542;&#20026;&#25353;&#38190;&#37322;&#25918;&#28040;&#24687;</text><rect fill="#B0C4DE" height="38.625" rx="12.5" ry="12.5" style="stroke:#181818;stroke-width:0.5;" width="343" x="404" y="502.2422"/><text fill="#000000" font-family="&#24605;&#28304;&#40657;&#20307;" font-size="16" lengthAdjust="spacing" textLength="323" x="414" y="527.0938">&#35302;&#21457; Block::keyReleaseEvent(Key,KeyFlag)</text><polygon fill="#F1F1F1" points="814.5,441.8906,1021.5,441.8906,1033.5,453.8906,1021.5,465.8906,814.5,465.8906,802.5,453.8906,814.5,441.8906" style="stroke:#181818;stroke-width:0.5;"/><text fill="#000000" font-family="&#24605;&#28304;&#40657;&#20307;" font-size="16" lengthAdjust="spacing" textLength="16" x="922" y="480.7422">&#26159;</text><text fill="#000000" font-family="&#24605;&#28304;&#40657;&#20307;" font-size="16" lengthAdjust="spacing" textLength="207" x="814.5" y="459.4297">&#26159;&#21542;&#20026;Unicode&#23383;&#31526;&#36755;&#20837;&#28040;&#24687;</text><rect fill="#B0C4DE" height="38.625" rx="12.5" ry="12.5" style="stroke:#181818;stroke-width:0.5;" width="302" x="767" y="502.2422"/><text fill="#000000" font-family="&#24605;&#28304;&#40657;&#20307;" font-size="16" lengthAdjust="spacing" textLength="282" x="777" y="527.0938">&#35302;&#21457; Block::InputTextEvent(wchar_t)</text><polygon fill="#F1F1F1" points="531.5,381.5391,643.5,381.5391,655.5,393.5391,643.5,405.5391,531.5,405.5391,519.5,393.5391,531.5,381.5391" style="stroke:#181818;stroke-width:0.5;"/><text fill="#000000" font-family="&#24605;&#28304;&#40657;&#20307;" font-size="16" lengthAdjust="spacing" textLength="16" x="591.5" y="420.3906">&#26159;</text><text fill="#000000" font-family="&#24605;&#28304;&#40657;&#20307;" font-size="16" lengthAdjust="spacing" textLength="112" x="531.5" y="399.0781">&#26159;&#21542;&#20026;&#25353;&#38190;&#28040;&#24687;</text><text fill="#000000" font-family="&#24605;&#28304;&#40657;&#20307;" font-size="16" lengthAdjust="spacing" textLength="16" x="655.5" y="389.7656">&#21542;</text><polygon fill="#F1F1F1" points="587.5,600.8672,599.5,612.8672,587.5,624.8672,575.5,612.8672,587.5,600.8672" style="stroke:#181818;stroke-width:0.5;"/><rect fill="#B0C4DE" height="38.625" rx="12.5" ry="12.5" style="stroke:#181818;stroke-width:0.5;" width="305" x="435" y="696.1797"/><text fill="#000000" font-family="&#24605;&#28304;&#40657;&#20307;" font-size="16" lengthAdjust="spacing" textLength="285" x="445" y="721.0313">&#35302;&#21457; Block::InputCharEvent(wchar_t)</text><polygon fill="#F1F1F1" points="504.5,644.8672,670.5,644.8672,682.5,656.8672,670.5,668.8672,504.5,668.8672,492.5,656.8672,504.5,644.8672" style="stroke:#181818;stroke-width:0.5;"/><text fill="#000000" font-family="&#24605;&#28304;&#40657;&#20307;" font-size="16" lengthAdjust="spacing" textLength="16" x="591.5" y="683.7188">&#26159;</text><text fill="#000000" font-family="&#24605;&#28304;&#40657;&#20307;" font-size="16" lengthAdjust="spacing" textLength="166" x="504.5" y="662.4063">&#26159;&#21542;&#20026;&#23383;&#31526;(ASCII)&#28040;&#24687;</text><text fill="#000000" font-family="&#24605;&#28304;&#40657;&#20307;" font-size="16" lengthAdjust="spacing" textLength="16" x="682.5" y="653.0938">&#21542;</text><polygon fill="#F1F1F1" points="587.5,754.8047,599.5,766.8047,587.5,778.8047,575.5,766.8047,587.5,754.8047" style="stroke:#181818;stroke-width:0.5;"/><polygon fill="#F1F1F1" points="523.5,271.6016,651.5,271.6016,663.5,283.6016,651.5,295.6016,523.5,295.6016,511.5,283.6016,523.5,271.6016" style="stroke:#181818;stroke-width:0.5;"/><text fill="#000000" font-family="&#24605;&#28304;&#40657;&#20307;" font-size="16" lengthAdjust="spacing" textLength="16" x="591.5" y="310.4531">&#26159;</text><text fill="#000000" font-family="&#24605;&#28304;&#40657;&#20307;" font-size="16" lengthAdjust="spacing" textLength="128" x="523.5" y="289.1406">&#26159;&#21542;&#23384;&#22312;&#38190;&#30424;&#28040;&#24687;</text><polygon fill="#F1F1F1" points="587.5,798.8047,599.5,810.8047,587.5,822.8047,575.5,810.8047,587.5,798.8047" style="stroke:#181818;stroke-width:0.5;"/><rect fill="#FFFFE0" height="38.625" rx="12.5" ry="12.5" style="stroke:#181818;stroke-width:0.5;" width="116" x="529.5" y="894.1172"/><text fill="#000000" font-family="&#24605;&#28304;&#40657;&#20307;" font-size="16" lengthAdjust="spacing" textLength="96" x="539.5" y="918.9688">&#25429;&#33719;&#40736;&#26631;&#28040;&#24687;</text><rect fill="#B0C4DE" height="38.625" rx="12.5" ry="12.5" style="stroke:#181818;stroke-width:0.5;" width="410" x="382.5" y="1004.0547"/><text fill="#000000" font-family="&#24605;&#28304;&#40657;&#20307;" font-size="16" lengthAdjust="spacing" textLength="390" x="392.5" y="1028.9063">&#35302;&#21457; Block::mousePressEvent(Point,MouseButton)</text><polygon fill="#F1F1F1" points="499.5,952.7422,675.5,952.7422,687.5,964.7422,675.5,976.7422,499.5,976.7422,487.5,964.7422,499.5,952.7422" style="stroke:#181818;stroke-width:0.5;"/><text fill="#000000" font-family="&#24605;&#28304;&#40657;&#20307;" font-size="16" lengthAdjust="spacing" textLength="16" x="591.5" y="991.5938">&#26159;</text><text fill="#000000" font-family="&#24605;&#28304;&#40657;&#20307;" font-size="16" lengthAdjust="spacing" textLength="176" x="499.5" y="970.2813">&#26159;&#21542;&#20026;&#40736;&#26631;&#25353;&#38190;&#25353;&#19979;&#28040;&#24687;</text><text fill="#000000" font-family="&#24605;&#28304;&#40657;&#20307;" font-size="16" lengthAdjust="spacing" textLength="16" x="687.5" y="960.9688">&#21542;</text><polygon fill="#F1F1F1" points="587.5,1062.6797,599.5,1074.6797,587.5,1086.6797,575.5,1074.6797,587.5,1062.6797" style="stroke:#181818;stroke-width:0.5;"/><rect fill="#B0C4DE" height="38.625" rx="12.5" ry="12.5" style="stroke:#181818;stroke-width:0.5;" width="425" x="375" y="1157.9922"/><text fill="#000000" font-family="&#24605;&#28304;&#40657;&#20307;" font-size="16" lengthAdjust="spacing" textLength="405" x="385" y="1182.8438">&#35302;&#21457; Block::mouseReleaseEvent(Point,MouseButton)</text><polygon fill="#F1F1F1" points="499.5,1106.6797,675.5,1106.6797,687.5,1118.6797,675.5,1130.6797,499.5,1130.6797,487.5,1118.6797,499.5,1106.6797" style="stroke:#181818;stroke-width:0.5;"/><text fill="#000000" font-family="&#24605;&#28304;&#40657;&#20307;" font-size="16" lengthAdjust="spacing" textLength="16" x="591.5" y="1145.5313">&#26159;</text><text fill="#000000" font-family="&#24605;&#28304;&#40657;&#20307;" font-size="16" lengthAdjust="spacing" textLength="176" x="499.5" y="1124.2188">&#26159;&#21542;&#20026;&#40736;&#26631;&#25353;&#38190;&#37322;&#25918;&#28040;&#24687;</text><text fill="#000000" font-family="&#24605;&#28304;&#40657;&#20307;" font-size="16" lengthAdjust="spacing" textLength="16" x="687.5" y="1114.9063">&#21542;</text><polygon fill="#F1F1F1" points="587.5,1216.6172,599.5,1228.6172,587.5,1240.6172,575.5,1228.6172,587.5,1216.6172" style="stroke:#181818;stroke-width:0.5;"/><rect fill="#B0C4DE" height="38.625" rx="12.5" ry="12.5" style="stroke:#181818;stroke-width:0.5;" width="352" x="411.5" y="1311.9297"/><text fill="#000000" font-family="&#24605;&#28304;&#40657;&#20307;" font-size="16" lengthAdjust="spacing" textLength="332" x="421.5" y="1336.7813">&#35302;&#21457; Block::wheelEvent(Point,MouseWheel)</text><polygon fill="#F1F1F1" points="515.5,1260.6172,659.5,1260.6172,671.5,1272.6172,659.5,1284.6172,515.5,1284.6172,503.5,1272.6172,515.5,1260.6172" style="stroke:#181818;stroke-width:0.5;"/><text fill="#000000" font-family="&#24605;&#28304;&#40657;&#20307;" font-size="16" lengthAdjust="spacing" textLength="16" x="591.5" y="1299.4688">&#26159;</text><text fill="#000000" font-family="&#24605;&#28304;&#40657;&#20307;" font-size="16" lengthAdjust="spacing" textLength="144" x="515.5" y="1278.1563">&#26159;&#21542;&#20026;&#40736;&#26631;&#28378;&#36718;&#28040;&#24687;</text><text fill="#000000" font-family="&#24605;&#28304;&#40657;&#20307;" font-size="16" lengthAdjust="spacing" textLength="16" x="671.5" y="1268.8438">&#21542;</text><polygon fill="#F1F1F1" points="587.5,1370.5547,599.5,1382.5547,587.5,1394.5547,575.5,1382.5547,587.5,1370.5547" style="stroke:#181818;stroke-width:0.5;"/><rect fill="#B0C4DE" height="38.625" rx="12.5" ry="12.5" style="stroke:#181818;stroke-width:0.5;" width="298" x="438.5" y="1465.8672"/><text fill="#000000" font-family="&#24605;&#28304;&#40657;&#20307;" font-size="16" lengthAdjust="spacing" textLength="278" x="448.5" y="1490.7188">&#35302;&#21457; Block::mouseMoveEvent(Point)</text><polygon fill="#F1F1F1" points="515.5,1414.5547,659.5,1414.5547,671.5,1426.5547,659.5,1438.5547,515.5,1438.5547,503.5,1426.5547,515.5,1414.5547" style="stroke:#181818;stroke-width:0.5;"/><text fill="#000000" font-family="&#24605;&#28304;&#40657;&#20307;" font-size="16" lengthAdjust="spacing" textLength="16" x="591.5" y="1453.4063">&#26159;</text><text fill="#000000" font-family="&#24605;&#28304;&#40657;&#20307;" font-size="16" lengthAdjust="spacing" textLength="144" x="515.5" y="1432.0938">&#26159;&#21542;&#20026;&#40736;&#26631;&#31227;&#21160;&#28040;&#24687;</text><text fill="#000000" font-family="&#24605;&#28304;&#40657;&#20307;" font-size="16" lengthAdjust="spacing" textLength="16" x="671.5" y="1422.7813">&#21542;</text><polygon fill="#F1F1F1" points="587.5,1524.4922,599.5,1536.4922,587.5,1548.4922,575.5,1536.4922,587.5,1524.4922" style="stroke:#181818;stroke-width:0.5;"/><polygon fill="#F1F1F1" points="523.5,842.8047,651.5,842.8047,663.5,854.8047,651.5,866.8047,523.5,866.8047,511.5,854.8047,523.5,842.8047" style="stroke:#181818;stroke-width:0.5;"/><text fill="#000000" font-family="&#24605;&#28304;&#40657;&#20307;" font-size="16" lengthAdjust="spacing" textLength="16" x="591.5" y="881.6563">&#26159;</text><text fill="#000000" font-family="&#24605;&#28304;&#40657;&#20307;" font-size="16" lengthAdjust="spacing" textLength="128" x="523.5" y="860.3438">&#26159;&#21542;&#23384;&#22312;&#40736;&#26631;&#28040;&#24687;</text><text fill="#000000" font-family="&#24605;&#28304;&#40657;&#20307;" font-size="16" lengthAdjust="spacing" textLength="16" x="663.5" y="851.0313">&#21542;</text><polygon fill="#F1F1F1" points="587.5,1568.4922,599.5,1580.4922,587.5,1592.4922,575.5,1580.4922,587.5,1568.4922" style="stroke:#181818;stroke-width:0.5;"/><polygon fill="#F1F1F1" points="495,211.25,680,211.25,692,223.25,680,235.25,495,235.25,483,223.25,495,211.25" style="stroke:#181818;stroke-width:0.5;"/><text fill="#000000" font-family="&#24605;&#28304;&#40657;&#20307;" font-size="16" lengthAdjust="spacing" textLength="16" x="591.5" y="250.1016">&#21542;</text><text fill="#000000" font-family="&#24605;&#28304;&#40657;&#20307;" font-size="16" lengthAdjust="spacing" textLength="185" x="495" y="228.7891">&#26159;&#21542;&#21363;&#23558;&#38656;&#35201;&#28210;&#26579;&#19979;&#19968;&#24103;?</text><text fill="#000000" font-family="&#24605;&#28304;&#40657;&#20307;" font-size="16" lengthAdjust="spacing" textLength="16" x="467" y="219.4766">&#26159;</text><polygon fill="#F1F1F1" points="555.5,108.625,619.5,108.625,631.5,120.625,619.5,132.625,555.5,132.625,543.5,120.625,555.5,108.625" style="stroke:#181818;stroke-width:0.5;"/><text fill="#000000" font-family="&#24605;&#28304;&#40657;&#20307;" font-size="16" lengthAdjust="spacing" textLength="64" x="555.5" y="126.1641">&#20107;&#20214;&#24490;&#29615;</text><rect fill="#F1F1F1" height="38.625" rx="12.5" ry="12.5" style="stroke:#181818;stroke-width:0.5;" width="84" x="545.5" y="1656.4922"/><text fill="#000000" font-family="&#24605;&#28304;&#40657;&#20307;" font-size="16" lengthAdjust="spacing" textLength="64" x="555.5" y="1681.3438">&#36864;&#20986;&#31243;&#24207;</text><ellipse cx="587.5" cy="1726.1172" fill="none" rx="11" ry="11" style="stroke:#222222;stroke-width:1.0;"/><ellipse cx="587.5" cy="1726.1172" fill="#222222" rx="6" ry="6" style="stroke:#222222;stroke-width:1.0;"/><line style="stroke:#181818;stroke-width:1.0;" x1="587.5" x2="587.5" y1="30" y2="50"/><polygon fill="#181818" points="583.5,40,587.5,50,591.5,40,587.5,44" style="stroke:#181818;stroke-width:1.0;"/><line style="stroke:#181818;stroke-width:1.0;" x1="220" x2="220" y1="465.8906" y2="502.2422"/><polygon fill="#181818" points="216,492.2422,220,502.2422,224,492.2422,220,496.2422" style="stroke:#181818;stroke-width:1.0;"/><line style="stroke:#181818;stroke-width:1.0;" x1="220" x2="220" y1="540.8672" y2="580.8672"/><polygon fill="#181818" points="216,570.8672,220,580.8672,224,570.8672,220,574.8672" style="stroke:#181818;stroke-width:1.0;"/><line style="stroke:#181818;stroke-width:1.0;" x1="575.5" x2="575.5" y1="465.8906" y2="502.2422"/><polygon fill="#181818" points="571.5,492.2422,575.5,502.2422,579.5,492.2422,575.5,496.2422" style="stroke:#181818;stroke-width:1.0;"/><line style="stroke:#181818;stroke-width:1.0;" x1="575.5" x2="575.5" y1="540.8672" y2="580.8672"/><polygon fill="#181818" points="571.5,570.8672,575.5,580.8672,579.5,570.8672,575.5,574.8672" style="stroke:#181818;stroke-width:1.0;"/><line style="stroke:#181818;stroke-width:1.0;" x1="918" x2="918" y1="465.8906" y2="502.2422"/><polygon fill="#181818" points="914,492.2422,918,502.2422,922,492.2422,918,496.2422" style="stroke:#181818;stroke-width:1.0;"/><line style="stroke:#181818;stroke-width:1.0;" x1="918" x2="918" y1="540.8672" y2="580.8672"/><polygon fill="#181818" points="914,570.8672,918,580.8672,922,570.8672,918,574.8672" style="stroke:#181818;stroke-width:1.0;"/><line style="stroke:#181818;stroke-width:1.0;" x1="304" x2="491.5" y1="453.8906" y2="453.8906"/><polygon fill="#181818" points="481.5,449.8906,491.5,453.8906,481.5,457.8906,485.5,453.8906" style="stroke:#181818;stroke-width:1.0;"/><line style="stroke:#181818;stroke-width:1.0;" x1="659.5" x2="802.5" y1="453.8906" y2="453.8906"/><polygon fill="#181818" points="792.5,449.8906,802.5,453.8906,792.5,457.8906,796.5,453.8906" style="stroke:#181818;stroke-width:1.0;"/><line style="stroke:#181818;stroke-width:1.0;" x1="587.5" x2="587.5" y1="405.5391" y2="426.8906"/><line style="stroke:#181818;stroke-width:1.0;" x1="587.5" x2="220" y1="426.8906" y2="426.8906"/><line style="stroke:#181818;stroke-width:1.0;" x1="220" x2="220" y1="426.8906" y2="441.8906"/><polygon fill="#181818" points="216,431.8906,220,441.8906,224,431.8906,220,435.8906" style="stroke:#181818;stroke-width:1.0;"/><line style="stroke:#181818;stroke-width:1.0;" x1="1033.5" x2="1083" y1="453.8906" y2="453.8906"/><line style="stroke:#181818;stroke-width:1.0;" x1="1083" x2="1083" y1="453.8906" y2="580.8672"/><polygon fill="#181818" points="1079,570.8672,1083,580.8672,1087,570.8672,1083,574.8672" style="stroke:#181818;stroke-width:1.0;"/><line style="stroke:#181818;stroke-width:1.0;" x1="220" x2="1083" y1="580.8672" y2="580.8672"/><line style="stroke:#181818;stroke-width:1.0;" x1="655.5" x2="1101" y1="393.5391" y2="393.5391"/><polygon fill="#181818" points="1097,505.2422,1101,515.2422,1105,505.2422,1101,509.2422" style="stroke:#181818;stroke-width:1.0;"/><line style="stroke:#181818;stroke-width:1.0;" x1="1101" x2="1101" y1="393.5391" y2="612.8672"/><line style="stroke:#181818;stroke-width:1.0;" x1="1101" x2="599.5" y1="612.8672" y2="612.8672"/><polygon fill="#181818" points="609.5,608.8672,599.5,612.8672,609.5,616.8672,605.5,612.8672" style="stroke:#181818;stroke-width:1.0;"/><line style="stroke:#181818;stroke-width:1.0;" x1="587.5" x2="587.5" y1="580.8672" y2="600.8672"/><polygon fill="#181818" points="583.5,590.8672,587.5,600.8672,591.5,590.8672,587.5,594.8672" style="stroke:#181818;stroke-width:1.0;"/><line style="stroke:#181818;stroke-width:1.0;" x1="587.5" x2="587.5" y1="361.5391" y2="381.5391"/><polygon fill="#181818" points="583.5,371.5391,587.5,381.5391,591.5,371.5391,587.5,375.5391" style="stroke:#181818;stroke-width:1.0;"/><line style="stroke:#181818;stroke-width:1.0;" x1="587.5" x2="587.5" y1="668.8672" y2="696.1797"/><polygon fill="#181818" points="583.5,686.1797,587.5,696.1797,591.5,686.1797,587.5,690.1797" style="stroke:#181818;stroke-width:1.0;"/><line style="stroke:#181818;stroke-width:1.0;" x1="682.5" x2="750" y1="656.8672" y2="656.8672"/><polygon fill="#181818" points="746,705.4922,750,715.4922,754,705.4922,750,709.4922" style="stroke:#181818;stroke-width:1.0;"/><line style="stroke:#181818;stroke-width:1.0;" x1="750" x2="750" y1="656.8672" y2="766.8047"/><line style="stroke:#181818;stroke-width:1.0;" x1="750" x2="599.5" y1="766.8047" y2="766.8047"/><polygon fill="#181818" points="609.5,762.8047,599.5,766.8047,609.5,770.8047,605.5,766.8047" style="stroke:#181818;stroke-width:1.0;"/><line style="stroke:#181818;stroke-width:1.0;" x1="587.5" x2="587.5" y1="734.8047" y2="754.8047"/><polygon fill="#181818" points="583.5,744.8047,587.5,754.8047,591.5,744.8047,587.5,748.8047" style="stroke:#181818;stroke-width:1.0;"/><line style="stroke:#181818;stroke-width:1.0;" x1="587.5" x2="587.5" y1="624.8672" y2="644.8672"/><polygon fill="#181818" points="583.5,634.8672,587.5,644.8672,591.5,634.8672,587.5,638.8672" style="stroke:#181818;stroke-width:1.0;"/><line style="stroke:#181818;stroke-width:1.0;" x1="587.5" x2="587.5" y1="295.6016" y2="322.9141"/><polygon fill="#181818" points="583.5,312.9141,587.5,322.9141,591.5,312.9141,587.5,316.9141" style="stroke:#181818;stroke-width:1.0;"/><line style="stroke:#181818;stroke-width:1.0;" x1="663.5" x2="1119" y1="283.6016" y2="283.6016"/><polygon fill="#181818" points="1115,550.8672,1119,560.8672,1123,550.8672,1119,554.8672" style="stroke:#181818;stroke-width:1.0;"/><line style="stroke:#181818;stroke-width:1.0;" x1="1119" x2="1119" y1="283.6016" y2="810.8047"/><line style="stroke:#181818;stroke-width:1.0;" x1="1119" x2="599.5" y1="810.8047" y2="810.8047"/><polygon fill="#181818" points="609.5,806.8047,599.5,810.8047,609.5,814.8047,605.5,810.8047" style="stroke:#181818;stroke-width:1.0;"/><line style="stroke:#181818;stroke-width:1.0;" x1="587.5" x2="587.5" y1="778.8047" y2="798.8047"/><polygon fill="#181818" points="583.5,788.8047,587.5,798.8047,591.5,788.8047,587.5,792.8047" style="stroke:#181818;stroke-width:1.0;"/><line style="stroke:#181818;stroke-width:1.0;" x1="587.5" x2="587.5" y1="976.7422" y2="1004.0547"/><polygon fill="#181818" points="583.5,994.0547,587.5,1004.0547,591.5,994.0547,587.5,998.0547" style="stroke:#181818;stroke-width:1.0;"/><line style="stroke:#181818;stroke-width:1.0;" x1="687.5" x2="802.5" y1="964.7422" y2="964.7422"/><polygon fill="#181818" points="798.5,1013.3672,802.5,1023.3672,806.5,1013.3672,802.5,1017.3672" style="stroke:#181818;stroke-width:1.0;"/><line style="stroke:#181818;stroke-width:1.0;" x1="802.5" x2="802.5" y1="964.7422" y2="1074.6797"/><line style="stroke:#181818;stroke-width:1.0;" x1="802.5" x2="599.5" y1="1074.6797" y2="1074.6797"/><polygon fill="#181818" points="609.5,1070.6797,599.5,1074.6797,609.5,1078.6797,605.5,1074.6797" style="stroke:#181818;stroke-width:1.0;"/><line style="stroke:#181818;stroke-width:1.0;" x1="587.5" x2="587.5" y1="1042.6797" y2="1062.6797"/><polygon fill="#181818" points="583.5,1052.6797,587.5,1062.6797,591.5,1052.6797,587.5,1056.6797" style="stroke:#181818;stroke-width:1.0;"/><line style="stroke:#181818;stroke-width:1.0;" x1="587.5" x2="587.5" y1="932.7422" y2="952.7422"/><polygon fill="#181818" points="583.5,942.7422,587.5,952.7422,591.5,942.7422,587.5,946.7422" style="stroke:#181818;stroke-width:1.0;"/><line style="stroke:#181818;stroke-width:1.0;" x1="587.5" x2="587.5" y1="1130.6797" y2="1157.9922"/><polygon fill="#181818" points="583.5,1147.9922,587.5,1157.9922,591.5,1147.9922,587.5,1151.9922" style="stroke:#181818;stroke-width:1.0;"/><line style="stroke:#181818;stroke-width:1.0;" x1="687.5" x2="810" y1="1118.6797" y2="1118.6797"/><polygon fill="#181818" points="806,1167.3047,810,1177.3047,814,1167.3047,810,1171.3047" style="stroke:#181818;stroke-width:1.0;"/><line style="stroke:#181818;stroke-width:1.0;" x1="810" x2="810" y1="1118.6797" y2="1228.6172"/><line style="stroke:#181818;stroke-width:1.0;" x1="810" x2="599.5" y1="1228.6172" y2="1228.6172"/><polygon fill="#181818" points="609.5,1224.6172,599.5,1228.6172,609.5,1232.6172,605.5,1228.6172" style="stroke:#181818;stroke-width:1.0;"/><line style="stroke:#181818;stroke-width:1.0;" x1="587.5" x2="587.5" y1="1196.6172" y2="1216.6172"/><polygon fill="#181818" points="583.5,1206.6172,587.5,1216.6172,591.5,1206.6172,587.5,1210.6172" style="stroke:#181818;stroke-width:1.0;"/><line style="stroke:#181818;stroke-width:1.0;" x1="587.5" x2="587.5" y1="1086.6797" y2="1106.6797"/><polygon fill="#181818" points="583.5,1096.6797,587.5,1106.6797,591.5,1096.6797,587.5,1100.6797" style="stroke:#181818;stroke-width:1.0;"/><line style="stroke:#181818;stroke-width:1.0;" x1="587.5" x2="587.5" y1="1284.6172" y2="1311.9297"/><polygon fill="#181818" points="583.5,1301.9297,587.5,1311.9297,591.5,1301.9297,587.5,1305.9297" style="stroke:#181818;stroke-width:1.0;"/><line style="stroke:#181818;stroke-width:1.0;" x1="671.5" x2="773.5" y1="1272.6172" y2="1272.6172"/><polygon fill="#181818" points="769.5,1321.2422,773.5,1331.2422,777.5,1321.2422,773.5,1325.2422" style="stroke:#181818;stroke-width:1.0;"/><line style="stroke:#181818;stroke-width:1.0;" x1="773.5" x2="773.5" y1="1272.6172" y2="1382.5547"/><line style="stroke:#181818;stroke-width:1.0;" x1="773.5" x2="599.5" y1="1382.5547" y2="1382.5547"/><polygon fill="#181818" points="609.5,1378.5547,599.5,1382.5547,609.5,1386.5547,605.5,1382.5547" style="stroke:#181818;stroke-width:1.0;"/><line style="stroke:#181818;stroke-width:1.0;" x1="587.5" x2="587.5" y1="1350.5547" y2="1370.5547"/><polygon fill="#181818" points="583.5,1360.5547,587.5,1370.5547,591.5,1360.5547,587.5,1364.5547" style="stroke:#181818;stroke-width:1.0;"/><line style="stroke:#181818;stroke-width:1.0;" x1="587.5" x2="587.5" y1="1240.6172" y2="1260.6172"/><polygon fill="#181818" points="583.5,1250.6172,587.5,1260.6172,591.5,1250.6172,587.5,1254.6172" style="stroke:#181818;stroke-width:1.0;"/><line style="stroke:#181818;stroke-width:1.0;" x1="587.5" x2="587.5" y1="1438.5547" y2="1465.8672"/><polygon fill="#181818" points="583.5,1455.8672,587.5,1465.8672,591.5,1455.8672,587.5,1459.8672" style="stroke:#181818;stroke-width:1.0;"/><line style="stroke:#181818;stroke-width:1.0;" x1="671.5" x2="746.5" y1="1426.5547" y2="1426.5547"/><polygon fill="#181818" points="742.5,1475.1797,746.5,1485.1797,750.5,1475.1797,746.5,1479.1797" style="stroke:#181818;stroke-width:1.0;"/><line style="stroke:#181818;stroke-width:1.0;" x1="746.5" x2="746.5" y1="1426.5547" y2="1536.4922"/><line style="stroke:#181818;stroke-width:1.0;" x1="746.5" x2="599.5" y1="1536.4922" y2="1536.4922"/><polygon fill="#181818" points="609.5,1532.4922,599.5,1536.4922,609.5,1540.4922,605.5,1536.4922" style="stroke:#181818;stroke-width:1.0;"/><line style="stroke:#181818;stroke-width:1.0;" x1="587.5" x2="587.5" y1="1504.4922" y2="1524.4922"/><polygon fill="#181818" points="583.5,1514.4922,587.5,1524.4922,591.5,1514.4922,587.5,1518.4922" style="stroke:#181818;stroke-width:1.0;"/><line style="stroke:#181818;stroke-width:1.0;" x1="587.5" x2="587.5" y1="1394.5547" y2="1414.5547"/><polygon fill="#181818" points="583.5,1404.5547,587.5,1414.5547,591.5,1404.5547,587.5,1408.5547" style="stroke:#181818;stroke-width:1.0;"/><line style="stroke:#181818;stroke-width:1.0;" x1="587.5" x2="587.5" y1="866.8047" y2="894.1172"/><polygon fill="#181818" points="583.5,884.1172,587.5,894.1172,591.5,884.1172,587.5,888.1172" style="stroke:#181818;stroke-width:1.0;"/><line style="stroke:#181818;stroke-width:1.0;" x1="663.5" x2="832" y1="854.8047" y2="854.8047"/><polygon fill="#181818" points="828,1211.3047,832,1221.3047,836,1211.3047,832,1215.3047" style="stroke:#181818;stroke-width:1.0;"/><line style="stroke:#181818;stroke-width:1.0;" x1="832" x2="832" y1="854.8047" y2="1580.4922"/><line style="stroke:#181818;stroke-width:1.0;" x1="832" x2="599.5" y1="1580.4922" y2="1580.4922"/><polygon fill="#181818" points="609.5,1576.4922,599.5,1580.4922,609.5,1584.4922,605.5,1580.4922" style="stroke:#181818;stroke-width:1.0;"/><line style="stroke:#181818;stroke-width:1.0;" x1="587.5" x2="587.5" y1="1548.4922" y2="1568.4922"/><polygon fill="#181818" points="583.5,1558.4922,587.5,1568.4922,591.5,1558.4922,587.5,1562.4922" style="stroke:#181818;stroke-width:1.0;"/><line style="stroke:#181818;stroke-width:1.0;" x1="587.5" x2="587.5" y1="822.8047" y2="842.8047"/><polygon fill="#181818" points="583.5,832.8047,587.5,842.8047,591.5,832.8047,587.5,836.8047" style="stroke:#181818;stroke-width:1.0;"/><line style="stroke:#0000FF;stroke-width:1.0;" x1="587.5" x2="587.5" y1="235.25" y2="271.6016"/><polygon fill="#0000FF" points="583.5,261.6016,587.5,271.6016,591.5,261.6016,587.5,265.6016" style="stroke:#0000FF;stroke-width:1.0;"/><line style="stroke:#181818;stroke-width:1.0;" x1="587.5" x2="587.5" y1="1592.4922" y2="1602.4922"/><line style="stroke:#181818;stroke-width:1.0;" x1="587.5" x2="1137" y1="1602.4922" y2="1602.4922"/><polygon fill="#181818" points="1133,908.9297,1137,898.9297,1141,908.9297,1137,904.9297" style="stroke:#181818;stroke-width:1.0;"/><line style="stroke:#181818;stroke-width:1.0;" x1="1137" x2="1137" y1="223.25" y2="1602.4922"/><line style="stroke:#181818;stroke-width:1.0;" x1="1137" x2="692" y1="223.25" y2="223.25"/><polygon fill="#181818" points="702,219.25,692,223.25,702,227.25,698,223.25" style="stroke:#181818;stroke-width:1.0;"/><line style="stroke:#181818;stroke-width:1.0;" x1="483" x2="42" y1="223.25" y2="223.25"/><polygon fill="#181818" points="38,894.9297,42,904.9297,46,894.9297,42,898.9297" style="stroke:#181818;stroke-width:1.0;"/><line style="stroke:#181818;stroke-width:1.0;" x1="42" x2="42" y1="223.25" y2="1614.4922"/><line style="stroke:#181818;stroke-width:1.0;" x1="42" x2="1149" y1="1614.4922" y2="1614.4922"/><line style="stroke:#181818;stroke-width:1.0;" x1="1149" x2="1149" y1="120.625" y2="1614.4922"/><line style="stroke:#181818;stroke-width:1.0;" x1="1149" x2="631.5" y1="120.625" y2="120.625"/><polygon fill="#181818" points="641.5,116.625,631.5,120.625,641.5,124.625,637.5,120.625" style="stroke:#181818;stroke-width:1.0;"/><line style="stroke:#0000FF;stroke-width:1.0;" x1="587.5" x2="587.5" y1="191.25" y2="211.25"/><polygon fill="#0000FF" points="583.5,201.25,587.5,211.25,591.5,201.25,587.5,205.25" style="stroke:#0000FF;stroke-width:1.0;"/><line style="stroke:#181818;stroke-width:1.0;" x1="587.5" x2="587.5" y1="132.625" y2="152.625"/><polygon fill="#181818" points="583.5,142.625,587.5,152.625,591.5,142.625,587.5,146.625" style="stroke:#181818;stroke-width:1.0;"/><line style="stroke:#181818;stroke-width:1.0;" x1="543.5" x2="24" y1="120.625" y2="120.625"/><polygon fill="#181818" points="20,846.1172,24,856.1172,28,846.1172,24,850.1172" style="stroke:#181818;stroke-width:1.0;"/><line style="stroke:#181818;stroke-width:1.0;" x1="24" x2="24" y1="120.625" y2="1636.4922"/><line style="stroke:#181818;stroke-width:1.0;" x1="24" x2="587.5" y1="1636.4922" y2="1636.4922"/><line style="stroke:#181818;stroke-width:1.0;" x1="587.5" x2="587.5" y1="1636.4922" y2="1656.4922"/><polygon fill="#181818" points="583.5,1646.4922,587.5,1656.4922,591.5,1646.4922,587.5,1650.4922" style="stroke:#181818;stroke-width:1.0;"/><line style="stroke:#181818;stroke-width:1.0;" x1="587.5" x2="587.5" y1="88.625" y2="108.625"/><polygon fill="#181818" points="583.5,98.625,587.5,108.625,591.5,98.625,587.5,102.625" style="stroke:#181818;stroke-width:1.0;"/><line style="stroke:#181818;stroke-width:1.0;" x1="587.5" x2="587.5" y1="1695.1172" y2="1715.1172"/><polygon fill="#181818" points="583.5,1705.1172,587.5,1715.1172,591.5,1705.1172,587.5,1709.1172" style="stroke:#181818;stroke-width:1.0;"/><!--SRC=[jPLTQzDG6CVlyod2TjF0Tk6D5oaeTdDGT5Ai8Y8YeNswXAP9QKvMvrLseTtMlNHqmw8JTsDRnAsYC4Fg-cboJf9lORA-9BLTszLw872Ua___v7SUdYT7IGjIbijn6Je9AKuLqOeieKTS1kWvedqYHibf7fgNvJbAwGcNVM5SU0FqhTiKfI0kXoWMbnfufsxLYzWu25DvNX213fb6qMnUuDPNQx_1KBGxvXyAQpoA8m0n8gh0shKgFZYa8wASIBDibXCaT7yT91IAzQPC-Cgv-6BUSxnSl7CLThv0AWrSgkAzd_ZxE-T4iwkRHFz1FfTDlMZg6jPhTnbQKEYGAse3U4D8TNrd5NnITuxEhOyLSh55DXiCua7otlfg7_ivYAASPydUiRt_A-WAzubxsvkwGNQtNU78lQ-nx6wxPnXh79_JD6p4Sg0exRG-W8q5zraHkJKcFB0RY0eCON4AE-IeDHkMno02fy1KD4yb8I4d0P-zjxvLxLOPl_qo0wYeb5NH4tZTARnyWkTohz0m7YaffAW1mlxQ6YuCdgAD7xeNNuf6cR7y4x0lkS2Zs2UYx8_-xf3Vf-IqSECE2RYkxv2EwYP5Fped6LbL853oCTdzaooiUgiH5I5PcYOzewWdR8y9gFkQutzoDp_Ob-V_I9pdtVK1r6VUwkn8hLhJlLPcaTjLUJsOsAbwP53a2zoPVoSnL3UaM4VJSC7etemAahD_0000]--></g></svg>