<svg xmlns="http://www.w3.org/2000/svg" xmlns:xlink="http://www.w3.org/1999/xlink" contentStyleType="text/css" height="396px" preserveAspectRatio="none" style="width:435px;height:396px;background:#FFFFFF;" version="1.1" viewBox="0 0 435 396" width="435px" zoomAndPan="magnify"><defs/><g><!--cluster WindowList--><g id="cluster_WindowList"><rect fill="none" height="102.26" rx="2.5" ry="2.5" style="stroke:#181818;stroke-width:1.0;" width="293" x="136" y="79.25"/><text fill="#000000" font-family="JetBrains Mono" font-size="16" font-weight="bold" lengthAdjust="spacing" textLength="102" x="231.5" y="96.1016">WindowList</text></g><!--cluster Group1List--><g id="cluster_Group1List"><rect fill="none" height="102.25" rx="2.5" ry="2.5" style="stroke:#181818;stroke-width:1.0;" width="287" x="7" y="205.51"/><text fill="#000000" font-family="JetBrains Mono" font-size="16" font-weight="bold" lengthAdjust="spacing" textLength="97" x="102" y="222.3616">Group1List</text></g><g id="elem_Group1"><rect fill="#F1F1F1" height="49.25" style="stroke:#181818;stroke-width:0.5;" width="116" x="152" y="116.25"/><text fill="#000000" font-family="JetBrains Mono" font-size="16" lengthAdjust="spacing" textLength="59" x="180.5" y="133.1016">Group1</text><line style="stroke:#181818;stroke-width:0.5;" x1="153" x2="267" y1="138.875" y2="138.875"/><rect fill="none" height="6" style="stroke:#C82930;stroke-width:1.0;" width="6" x="160" y="150.6875"/><text fill="#000000" font-family="JetBrains Mono" font-size="16" lengthAdjust="spacing" textLength="90" x="172" y="157.7266">zindex = -1</text></g><g id="elem_Button1"><rect fill="#F1F1F1" height="49.25" style="stroke:#181818;stroke-width:0.5;" width="110" x="303" y="116.25"/><text fill="#000000" font-family="JetBrains Mono" font-size="16" lengthAdjust="spacing" textLength="63" x="326.5" y="133.1016">Button1</text><line style="stroke:#181818;stroke-width:0.5;" x1="304" x2="412" y1="138.875" y2="138.875"/><rect fill="none" height="6" style="stroke:#C82930;stroke-width:1.0;" width="6" x="311" y="150.6875"/><text fill="#000000" font-family="JetBrains Mono" font-size="16" lengthAdjust="spacing" textLength="84" x="323" y="157.7266">zindex = 0</text></g><g id="elem_Button2"><rect fill="#F1F1F1" height="49.25" style="stroke:#181818;stroke-width:0.5;" width="110" x="23" y="242.51"/><text fill="#000000" font-family="JetBrains Mono" font-size="16" lengthAdjust="spacing" textLength="63" x="46.5" y="259.3616">Button2</text><line style="stroke:#181818;stroke-width:0.5;" x1="24" x2="132" y1="265.135" y2="265.135"/><rect fill="none" height="6" style="stroke:#C82930;stroke-width:1.0;" width="6" x="31" y="276.9475"/><text fill="#000000" font-family="JetBrains Mono" font-size="16" lengthAdjust="spacing" textLength="84" x="43" y="283.9866">zindex = 0</text></g><g id="elem_Button3"><rect fill="#F1F1F1" height="49.25" style="stroke:#181818;stroke-width:0.5;" width="110" x="168" y="242.51"/><text fill="#000000" font-family="JetBrains Mono" font-size="16" lengthAdjust="spacing" textLength="63" x="191.5" y="259.3616">Button3</text><line style="stroke:#181818;stroke-width:0.5;" x1="169" x2="277" y1="265.135" y2="265.135"/><rect fill="none" height="6" style="stroke:#C82930;stroke-width:1.0;" width="6" x="176" y="276.9475"/><text fill="#000000" font-family="JetBrains Mono" font-size="16" lengthAdjust="spacing" textLength="84" x="188" y="283.9866">zindex = 0</text></g><g id="elem_App"><rect fill="#F1F1F1" height="49.25" style="stroke:#181818;stroke-width:0.5;" width="102" x="109" y="7"/><text fill="#000000" font-family="JetBrains Mono" font-size="16" lengthAdjust="spacing" textLength="31" x="144.5" y="23.8516">App</text><line style="stroke:#181818;stroke-width:0.5;" x1="110" x2="210" y1="29.625" y2="29.625"/><ellipse cx="120" cy="44.4375" fill="#84BE84" rx="3" ry="3" style="stroke:#038048;stroke-width:1.0;"/><text fill="#000000" font-family="JetBrains Mono" font-size="16" lengthAdjust="spacing" textLength="76" x="129" y="48.4766">run():void</text></g><g id="elem_Window"><rect fill="#F1F1F1" height="38.625" style="stroke:#181818;stroke-width:0.5;" width="77" x="245.5" y="12.32"/><text fill="#000000" font-family="JetBrains Mono" font-size="16" lengthAdjust="spacing" textLength="63" x="252.5" y="29.1716">Window</text><line style="stroke:#181818;stroke-width:0.5;" x1="246.5" x2="321.5" y1="34.945" y2="34.945"/></g><g id="elem_Label1"><rect fill="#F1F1F1" height="38.625" style="stroke:#181818;stroke-width:0.5;" width="64" x="326" y="247.82"/><text fill="#000000" font-family="JetBrains Mono" font-size="16" lengthAdjust="spacing" textLength="50" x="333" y="264.6716">Label1</text><line style="stroke:#181818;stroke-width:0.5;" x1="327" x2="389" y1="270.445" y2="270.445"/></g><g id="elem_Label2"><rect fill="#F1F1F1" height="38.625" style="stroke:#181818;stroke-width:0.5;" width="64" x="46" y="351.76"/><text fill="#000000" font-family="JetBrains Mono" font-size="16" lengthAdjust="spacing" textLength="50" x="53" y="368.6116">Label2</text><line style="stroke:#181818;stroke-width:0.5;" x1="47" x2="109" y1="374.385" y2="374.385"/></g><g id="elem_Label3"><rect fill="#F1F1F1" height="38.625" style="stroke:#181818;stroke-width:0.5;" width="64" x="191" y="351.76"/><text fill="#000000" font-family="JetBrains Mono" font-size="16" lengthAdjust="spacing" textLength="50" x="198" y="368.6116">Label3</text><line style="stroke:#181818;stroke-width:0.5;" x1="192" x2="254" y1="374.385" y2="374.385"/></g><!--reverse link Window to Button1--><g id="link_Window_Button1"><path codeLine="24" d="M300.2968,56.249 C312.6368,74.139 327.91,96.27 341.36,115.77 " fill="none" id="Window-backto-Button1" style="stroke:#181818;stroke-width:1.0;"/><polygon fill="#181818" points="296.89,51.31,298.7075,60.9897,299.729,55.4258,305.2929,56.4473,296.89,51.31" style="stroke:#181818;stroke-width:1.0;"/></g><!--reverse link Window to Group1--><g id="link_Window_Group1"><path codeLine="25" d="M267.7032,56.249 C255.3632,74.139 240.09,96.27 226.64,115.77 " fill="none" id="Window-backto-Group1" style="stroke:#181818;stroke-width:1.0;"/><polygon fill="#181818" points="271.11,51.31,262.7071,56.4473,268.271,55.4258,269.2925,60.9897,271.11,51.31" style="stroke:#181818;stroke-width:1.0;"/></g><!--reverse link Group1 to Button2--><g id="link_Group1_Button2"><path codeLine="26" d="M179.5339,169.9726 C168.9639,179.7426 161.07,187.1 150,197.51 C134.27,212.29 116.74,229 102.91,242.23 " fill="none" id="Group1-backto-Button2" style="stroke:#181818;stroke-width:1.0;"/><polygon fill="#181818" points="183.94,165.9,174.6158,169.0715,180.2682,169.2939,180.0459,174.9463,183.94,165.9" style="stroke:#181818;stroke-width:1.0;"/></g><!--reverse link Group1 to Button3--><g id="link_Group1_Button3"><path codeLine="27" d="M213.1339,171.8075 C215.4339,193.8075 218.2,220.27 220.5,242.25 " fill="none" id="Group1-backto-Button3" style="stroke:#181818;stroke-width:1.0;"/><polygon fill="#181818" points="212.51,165.84,209.4675,175.2071,213.0299,170.8129,217.4241,174.3753,212.51,165.84" style="stroke:#181818;stroke-width:1.0;"/></g><!--reverse link Button1 to Label1--><g id="link_Button1_Label1"><path codeLine="29" d="M358,171.84 C358,195.67 358,225.75 358,247.51 " fill="none" id="Button1-backto-Label1" style="stroke:#181818;stroke-width:1.0;"/><polygon fill="#181818" points="358,165.84,354,174.84,358,170.84,362,174.84,358,165.84" style="stroke:#181818;stroke-width:1.0;"/></g><!--reverse link Button2 to Label2--><g id="link_Button2_Label2"><path codeLine="30" d="M78,298.03 C78,316.15 78,334.71 78,351.41 " fill="none" id="Button2-backto-Label2" style="stroke:#181818;stroke-width:1.0;"/><polygon fill="#181818" points="78,292.03,74,301.03,78,297.03,82,301.03,78,292.03" style="stroke:#181818;stroke-width:1.0;"/></g><!--reverse link Button3 to Label3--><g id="link_Button3_Label3"><path codeLine="31" d="M223,298.03 C223,316.15 223,334.71 223,351.41 " fill="none" id="Button3-backto-Label3" style="stroke:#181818;stroke-width:1.0;"/><polygon fill="#181818" points="223,292.03,219,301.03,223,297.03,227,301.03,223,292.03" style="stroke:#181818;stroke-width:1.0;"/></g><!--reverse link App to Window--><g id="link_App_Window"><path codeLine="33" d="M217.34,31.63 C228.6,31.63 233.86,31.63 245.12,31.63 " fill="none" id="App-backto-Window" style="stroke:#181818;stroke-width:1.0;"/><polygon fill="#181818" points="211.34,31.63,220.34,35.63,216.34,31.63,220.34,27.63,211.34,31.63" style="stroke:#181818;stroke-width:1.0;"/></g><!--SRC=[XP51ImCn48Nlyok6dXG9D5dmKDQ2HHIaUj23vsaxbhJR9EncLIh-ToCx6xksO4wPZvUPzoRDrhf0DUtmXb-fhUAjT_6HTeoZUuwpcgnhyC4xFuBcbFJPxXdr9O1VR7WPyJg4_lfYtSg_Gw3bbjOivTms4SloAGd8hIkUJZy1qv4tTxLlWpuaipP6xpHyvKQTvfz6tJDpZ8hKIS2S5bpfGMK6LG6Gyk04B-hMdPrFthnTGJS-GRLFYVW3hr1f49i3F1PgJjBY3uLkGLWgbKCV8DcCJFyLcMEKRFTsVg34xBraPBAHZ2HmgUItlW40]--></g></svg>