<svg xmlns="http://www.w3.org/2000/svg" xmlns:xlink="http://www.w3.org/1999/xlink" contentStyleType="text/css" height="1564px" preserveAspectRatio="none" style="width:1102px;height:1564px;background:#FFFFFF;" version="1.1" viewBox="0 0 1102 1564" width="1102px" zoomAndPan="magnify"><defs/><g><ellipse cx="548" cy="20" fill="#222222" rx="10" ry="10" style="stroke:#222222;stroke-width:1.0;"/><rect fill="#F1F1F1" height="38.625" rx="12.5" ry="12.5" style="stroke:#181818;stroke-width:0.5;" width="116" x="490" y="161.6641"/><text fill="#000000" font-family="&#24605;&#28304;&#40657;&#20307;" font-size="16" lengthAdjust="spacing" textLength="96" x="500" y="186.5156">&#25429;&#33719;&#38190;&#30424;&#28040;&#24687;</text><polygon fill="#F1F1F1" points="130,280.6406,274,280.6406,286,292.6406,274,304.6406,130,304.6406,118,292.6406,130,280.6406" style="stroke:#181818;stroke-width:0.5;"/><text fill="#000000" font-family="&#24605;&#28304;&#40657;&#20307;" font-size="16" lengthAdjust="spacing" textLength="16" x="206" y="319.4922">&#26159;</text><text fill="#000000" font-family="&#24605;&#28304;&#40657;&#20307;" font-size="16" lengthAdjust="spacing" textLength="144" x="130" y="298.1797">&#26159;&#21542;&#20026;&#25353;&#38190;&#25353;&#19979;&#28040;&#24687;</text><rect fill="#B0C4DE" height="38.625" rx="12.5" ry="12.5" style="stroke:#181818;stroke-width:0.5;" width="328" x="38" y="340.9922"/><text fill="#000000" font-family="&#24605;&#28304;&#40657;&#20307;" font-size="16" lengthAdjust="spacing" textLength="308" x="48" y="365.8438">&#35302;&#21457; Block::keyPressEvent(Key,KeyFlag)</text><polygon fill="#F1F1F1" points="485.5,280.6406,629.5,280.6406,641.5,292.6406,629.5,304.6406,485.5,304.6406,473.5,292.6406,485.5,280.6406" style="stroke:#181818;stroke-width:0.5;"/><text fill="#000000" font-family="&#24605;&#28304;&#40657;&#20307;" font-size="16" lengthAdjust="spacing" textLength="16" x="561.5" y="319.4922">&#26159;</text><text fill="#000000" font-family="&#24605;&#28304;&#40657;&#20307;" font-size="16" lengthAdjust="spacing" textLength="144" x="485.5" y="298.1797">&#26159;&#21542;&#20026;&#25353;&#38190;&#37322;&#25918;&#28040;&#24687;</text><rect fill="#B0C4DE" height="38.625" rx="12.5" ry="12.5" style="stroke:#181818;stroke-width:0.5;" width="343" x="386" y="340.9922"/><text fill="#000000" font-family="&#24605;&#28304;&#40657;&#20307;" font-size="16" lengthAdjust="spacing" textLength="323" x="396" y="365.8438">&#35302;&#21457; Block::keyReleaseEvent(Key,KeyFlag)</text><polygon fill="#F1F1F1" points="775,280.6406,982,280.6406,994,292.6406,982,304.6406,775,304.6406,763,292.6406,775,280.6406" style="stroke:#181818;stroke-width:0.5;"/><text fill="#000000" font-family="&#24605;&#28304;&#40657;&#20307;" font-size="16" lengthAdjust="spacing" textLength="16" x="882.5" y="319.4922">&#26159;</text><text fill="#000000" font-family="&#24605;&#28304;&#40657;&#20307;" font-size="16" lengthAdjust="spacing" textLength="207" x="775" y="298.1797">&#26159;&#21542;&#20026;Unicode&#23383;&#31526;&#36755;&#20837;&#28040;&#24687;</text><rect fill="#B0C4DE" height="38.625" rx="12.5" ry="12.5" style="stroke:#181818;stroke-width:0.5;" width="259" x="749" y="340.9922"/><text fill="#000000" font-family="&#24605;&#28304;&#40657;&#20307;" font-size="16" lengthAdjust="spacing" textLength="239" x="759" y="365.8438">&#35302;&#21457; Block::InputTextEvent(int)</text><polygon fill="#F1F1F1" points="492,220.2891,604,220.2891,616,232.2891,604,244.2891,492,244.2891,480,232.2891,492,220.2891" style="stroke:#181818;stroke-width:0.5;"/><text fill="#000000" font-family="&#24605;&#28304;&#40657;&#20307;" font-size="16" lengthAdjust="spacing" textLength="16" x="552" y="259.1406">&#26159;</text><text fill="#000000" font-family="&#24605;&#28304;&#40657;&#20307;" font-size="16" lengthAdjust="spacing" textLength="112" x="492" y="237.8281">&#26159;&#21542;&#20026;&#25353;&#38190;&#28040;&#24687;</text><text fill="#000000" font-family="&#24605;&#28304;&#40657;&#20307;" font-size="16" lengthAdjust="spacing" textLength="16" x="616" y="228.5156">&#21542;</text><polygon fill="#F1F1F1" points="548,439.6172,560,451.6172,548,463.6172,536,451.6172,548,439.6172" style="stroke:#181818;stroke-width:0.5;"/><rect fill="#B0C4DE" height="38.625" rx="12.5" ry="12.5" style="stroke:#181818;stroke-width:0.5;" width="262" x="417" y="534.9297"/><text fill="#000000" font-family="&#24605;&#28304;&#40657;&#20307;" font-size="16" lengthAdjust="spacing" textLength="242" x="427" y="559.7813">&#35302;&#21457; Block::InputCharEvent(int)</text><polygon fill="#F1F1F1" points="465,483.6172,631,483.6172,643,495.6172,631,507.6172,465,507.6172,453,495.6172,465,483.6172" style="stroke:#181818;stroke-width:0.5;"/><text fill="#000000" font-family="&#24605;&#28304;&#40657;&#20307;" font-size="16" lengthAdjust="spacing" textLength="16" x="552" y="522.4688">&#26159;</text><text fill="#000000" font-family="&#24605;&#28304;&#40657;&#20307;" font-size="16" lengthAdjust="spacing" textLength="166" x="465" y="501.1563">&#26159;&#21542;&#20026;&#23383;&#31526;(ASCII)&#28040;&#24687;</text><text fill="#000000" font-family="&#24605;&#28304;&#40657;&#20307;" font-size="16" lengthAdjust="spacing" textLength="16" x="643" y="491.8438">&#21542;</text><polygon fill="#F1F1F1" points="548,593.5547,560,605.5547,548,617.5547,536,605.5547,548,593.5547" style="stroke:#181818;stroke-width:0.5;"/><polygon fill="#F1F1F1" points="484,110.3516,612,110.3516,624,122.3516,612,134.3516,484,134.3516,472,122.3516,484,110.3516" style="stroke:#181818;stroke-width:0.5;"/><text fill="#000000" font-family="&#24605;&#28304;&#40657;&#20307;" font-size="16" lengthAdjust="spacing" textLength="16" x="552" y="149.2031">&#26159;</text><text fill="#000000" font-family="&#24605;&#28304;&#40657;&#20307;" font-size="16" lengthAdjust="spacing" textLength="128" x="484" y="127.8906">&#26159;&#21542;&#23384;&#22312;&#38190;&#30424;&#28040;&#24687;</text><polygon fill="#F1F1F1" points="548,637.5547,560,649.5547,548,661.5547,536,649.5547,548,637.5547" style="stroke:#181818;stroke-width:0.5;"/><rect fill="#F1F1F1" height="38.625" rx="12.5" ry="12.5" style="stroke:#181818;stroke-width:0.5;" width="116" x="490" y="732.8672"/><text fill="#000000" font-family="&#24605;&#28304;&#40657;&#20307;" font-size="16" lengthAdjust="spacing" textLength="96" x="500" y="757.7188">&#25429;&#33719;&#40736;&#26631;&#28040;&#24687;</text><rect fill="#B0C4DE" height="38.625" rx="12.5" ry="12.5" style="stroke:#181818;stroke-width:0.5;" width="410" x="343" y="842.8047"/><text fill="#000000" font-family="&#24605;&#28304;&#40657;&#20307;" font-size="16" lengthAdjust="spacing" textLength="390" x="353" y="867.6563">&#35302;&#21457; Block::mousePressEvent(Point,MouseButton)</text><polygon fill="#F1F1F1" points="460,791.4922,636,791.4922,648,803.4922,636,815.4922,460,815.4922,448,803.4922,460,791.4922" style="stroke:#181818;stroke-width:0.5;"/><text fill="#000000" font-family="&#24605;&#28304;&#40657;&#20307;" font-size="16" lengthAdjust="spacing" textLength="16" x="552" y="830.3438">&#26159;</text><text fill="#000000" font-family="&#24605;&#28304;&#40657;&#20307;" font-size="16" lengthAdjust="spacing" textLength="176" x="460" y="809.0313">&#26159;&#21542;&#20026;&#40736;&#26631;&#25353;&#38190;&#25353;&#19979;&#28040;&#24687;</text><text fill="#000000" font-family="&#24605;&#28304;&#40657;&#20307;" font-size="16" lengthAdjust="spacing" textLength="16" x="648" y="799.7188">&#21542;</text><polygon fill="#F1F1F1" points="548,901.4297,560,913.4297,548,925.4297,536,913.4297,548,901.4297" style="stroke:#181818;stroke-width:0.5;"/><rect fill="#B0C4DE" height="38.625" rx="12.5" ry="12.5" style="stroke:#181818;stroke-width:0.5;" width="425" x="335.5" y="996.7422"/><text fill="#000000" font-family="&#24605;&#28304;&#40657;&#20307;" font-size="16" lengthAdjust="spacing" textLength="405" x="345.5" y="1021.5938">&#35302;&#21457; Block::mouseReleaseEvent(Point,MouseButton)</text><polygon fill="#F1F1F1" points="460,945.4297,636,945.4297,648,957.4297,636,969.4297,460,969.4297,448,957.4297,460,945.4297" style="stroke:#181818;stroke-width:0.5;"/><text fill="#000000" font-family="&#24605;&#28304;&#40657;&#20307;" font-size="16" lengthAdjust="spacing" textLength="16" x="552" y="984.2813">&#26159;</text><text fill="#000000" font-family="&#24605;&#28304;&#40657;&#20307;" font-size="16" lengthAdjust="spacing" textLength="176" x="460" y="962.9688">&#26159;&#21542;&#20026;&#40736;&#26631;&#25353;&#38190;&#37322;&#25918;&#28040;&#24687;</text><text fill="#000000" font-family="&#24605;&#28304;&#40657;&#20307;" font-size="16" lengthAdjust="spacing" textLength="16" x="648" y="953.6563">&#21542;</text><polygon fill="#F1F1F1" points="548,1055.3672,560,1067.3672,548,1079.3672,536,1067.3672,548,1055.3672" style="stroke:#181818;stroke-width:0.5;"/><rect fill="#B0C4DE" height="38.625" rx="12.5" ry="12.5" style="stroke:#181818;stroke-width:0.5;" width="352" x="372" y="1150.6797"/><text fill="#000000" font-family="&#24605;&#28304;&#40657;&#20307;" font-size="16" lengthAdjust="spacing" textLength="332" x="382" y="1175.5313">&#35302;&#21457; Block::wheelEvent(Point,MouseWheel)</text><polygon fill="#F1F1F1" points="476,1099.3672,620,1099.3672,632,1111.3672,620,1123.3672,476,1123.3672,464,1111.3672,476,1099.3672" style="stroke:#181818;stroke-width:0.5;"/><text fill="#000000" font-family="&#24605;&#28304;&#40657;&#20307;" font-size="16" lengthAdjust="spacing" textLength="16" x="552" y="1138.2188">&#26159;</text><text fill="#000000" font-family="&#24605;&#28304;&#40657;&#20307;" font-size="16" lengthAdjust="spacing" textLength="144" x="476" y="1116.9063">&#26159;&#21542;&#20026;&#40736;&#26631;&#28378;&#36718;&#28040;&#24687;</text><text fill="#000000" font-family="&#24605;&#28304;&#40657;&#20307;" font-size="16" lengthAdjust="spacing" textLength="16" x="632" y="1107.5938">&#21542;</text><polygon fill="#F1F1F1" points="548,1209.3047,560,1221.3047,548,1233.3047,536,1221.3047,548,1209.3047" style="stroke:#181818;stroke-width:0.5;"/><rect fill="#B0C4DE" height="38.625" rx="12.5" ry="12.5" style="stroke:#181818;stroke-width:0.5;" width="298" x="399" y="1304.6172"/><text fill="#000000" font-family="&#24605;&#28304;&#40657;&#20307;" font-size="16" lengthAdjust="spacing" textLength="278" x="409" y="1329.4688">&#35302;&#21457; Block::mouseMoveEvent(Point)</text><polygon fill="#F1F1F1" points="476,1253.3047,620,1253.3047,632,1265.3047,620,1277.3047,476,1277.3047,464,1265.3047,476,1253.3047" style="stroke:#181818;stroke-width:0.5;"/><text fill="#000000" font-family="&#24605;&#28304;&#40657;&#20307;" font-size="16" lengthAdjust="spacing" textLength="16" x="552" y="1292.1563">&#26159;</text><text fill="#000000" font-family="&#24605;&#28304;&#40657;&#20307;" font-size="16" lengthAdjust="spacing" textLength="144" x="476" y="1270.8438">&#26159;&#21542;&#20026;&#40736;&#26631;&#31227;&#21160;&#28040;&#24687;</text><text fill="#000000" font-family="&#24605;&#28304;&#40657;&#20307;" font-size="16" lengthAdjust="spacing" textLength="16" x="632" y="1261.5313">&#21542;</text><polygon fill="#F1F1F1" points="548,1363.2422,560,1375.2422,548,1387.2422,536,1375.2422,548,1363.2422" style="stroke:#181818;stroke-width:0.5;"/><polygon fill="#F1F1F1" points="484,681.5547,612,681.5547,624,693.5547,612,705.5547,484,705.5547,472,693.5547,484,681.5547" style="stroke:#181818;stroke-width:0.5;"/><text fill="#000000" font-family="&#24605;&#28304;&#40657;&#20307;" font-size="16" lengthAdjust="spacing" textLength="16" x="552" y="720.4063">&#26159;</text><text fill="#000000" font-family="&#24605;&#28304;&#40657;&#20307;" font-size="16" lengthAdjust="spacing" textLength="128" x="484" y="699.0938">&#26159;&#21542;&#23384;&#22312;&#40736;&#26631;&#28040;&#24687;</text><text fill="#000000" font-family="&#24605;&#28304;&#40657;&#20307;" font-size="16" lengthAdjust="spacing" textLength="16" x="624" y="689.7813">&#21542;</text><polygon fill="#F1F1F1" points="548,1407.2422,560,1419.2422,548,1431.2422,536,1419.2422,548,1407.2422" style="stroke:#181818;stroke-width:0.5;"/><polygon fill="#F1F1F1" points="471.5,50,624.5,50,636.5,62,624.5,74,471.5,74,459.5,62,471.5,50" style="stroke:#181818;stroke-width:0.5;"/><text fill="#000000" font-family="&#24605;&#28304;&#40657;&#20307;" font-size="16" lengthAdjust="spacing" textLength="16" x="552" y="88.8516">&#21542;</text><text fill="#000000" font-family="&#24605;&#28304;&#40657;&#20307;" font-size="16" lengthAdjust="spacing" textLength="153" x="471.5" y="67.5391">&#26159;&#21542;&#38656;&#35201;&#28210;&#26579;&#19979;&#19968;&#24103;?</text><text fill="#000000" font-family="&#24605;&#28304;&#40657;&#20307;" font-size="16" lengthAdjust="spacing" textLength="16" x="443.5" y="58.2266">&#26159;</text><rect fill="#B0C4DE" height="38.625" rx="12.5" ry="12.5" style="stroke:#181818;stroke-width:0.5;" width="285" x="405.5" y="1473.2422"/><text fill="#000000" font-family="&#24605;&#28304;&#40657;&#20307;" font-size="16" lengthAdjust="spacing" textLength="265" x="415.5" y="1498.0938">&#35302;&#21457; Block::paintEvent(PaintEvent)</text><ellipse cx="548" cy="1542.8672" fill="none" rx="11" ry="11" style="stroke:#222222;stroke-width:1.0;"/><ellipse cx="548" cy="1542.8672" fill="#222222" rx="6" ry="6" style="stroke:#222222;stroke-width:1.0;"/><line style="stroke:#181818;stroke-width:1.0;" x1="202" x2="202" y1="304.6406" y2="340.9922"/><polygon fill="#181818" points="198,330.9922,202,340.9922,206,330.9922,202,334.9922" style="stroke:#181818;stroke-width:1.0;"/><line style="stroke:#181818;stroke-width:1.0;" x1="202" x2="202" y1="379.6172" y2="419.6172"/><polygon fill="#181818" points="198,409.6172,202,419.6172,206,409.6172,202,413.6172" style="stroke:#181818;stroke-width:1.0;"/><line style="stroke:#181818;stroke-width:1.0;" x1="557.5" x2="557.5" y1="304.6406" y2="340.9922"/><polygon fill="#181818" points="553.5,330.9922,557.5,340.9922,561.5,330.9922,557.5,334.9922" style="stroke:#181818;stroke-width:1.0;"/><line style="stroke:#181818;stroke-width:1.0;" x1="557.5" x2="557.5" y1="379.6172" y2="419.6172"/><polygon fill="#181818" points="553.5,409.6172,557.5,419.6172,561.5,409.6172,557.5,413.6172" style="stroke:#181818;stroke-width:1.0;"/><line style="stroke:#181818;stroke-width:1.0;" x1="878.5" x2="878.5" y1="304.6406" y2="340.9922"/><polygon fill="#181818" points="874.5,330.9922,878.5,340.9922,882.5,330.9922,878.5,334.9922" style="stroke:#181818;stroke-width:1.0;"/><line style="stroke:#181818;stroke-width:1.0;" x1="878.5" x2="878.5" y1="379.6172" y2="419.6172"/><polygon fill="#181818" points="874.5,409.6172,878.5,419.6172,882.5,409.6172,878.5,413.6172" style="stroke:#181818;stroke-width:1.0;"/><line style="stroke:#181818;stroke-width:1.0;" x1="286" x2="473.5" y1="292.6406" y2="292.6406"/><polygon fill="#181818" points="463.5,288.6406,473.5,292.6406,463.5,296.6406,467.5,292.6406" style="stroke:#181818;stroke-width:1.0;"/><line style="stroke:#181818;stroke-width:1.0;" x1="641.5" x2="763" y1="292.6406" y2="292.6406"/><polygon fill="#181818" points="753,288.6406,763,292.6406,753,296.6406,757,292.6406" style="stroke:#181818;stroke-width:1.0;"/><line style="stroke:#181818;stroke-width:1.0;" x1="548" x2="548" y1="244.2891" y2="265.6406"/><line style="stroke:#181818;stroke-width:1.0;" x1="548" x2="202" y1="265.6406" y2="265.6406"/><line style="stroke:#181818;stroke-width:1.0;" x1="202" x2="202" y1="265.6406" y2="280.6406"/><polygon fill="#181818" points="198,270.6406,202,280.6406,206,270.6406,202,274.6406" style="stroke:#181818;stroke-width:1.0;"/><line style="stroke:#181818;stroke-width:1.0;" x1="994" x2="1022" y1="292.6406" y2="292.6406"/><line style="stroke:#181818;stroke-width:1.0;" x1="1022" x2="1022" y1="292.6406" y2="419.6172"/><polygon fill="#181818" points="1018,409.6172,1022,419.6172,1026,409.6172,1022,413.6172" style="stroke:#181818;stroke-width:1.0;"/><line style="stroke:#181818;stroke-width:1.0;" x1="202" x2="1022" y1="419.6172" y2="419.6172"/><line style="stroke:#181818;stroke-width:1.0;" x1="616" x2="1040" y1="232.2891" y2="232.2891"/><polygon fill="#181818" points="1036,343.9922,1040,353.9922,1044,343.9922,1040,347.9922" style="stroke:#181818;stroke-width:1.0;"/><line style="stroke:#181818;stroke-width:1.0;" x1="1040" x2="1040" y1="232.2891" y2="451.6172"/><line style="stroke:#181818;stroke-width:1.0;" x1="1040" x2="560" y1="451.6172" y2="451.6172"/><polygon fill="#181818" points="570,447.6172,560,451.6172,570,455.6172,566,451.6172" style="stroke:#181818;stroke-width:1.0;"/><line style="stroke:#181818;stroke-width:1.0;" x1="548" x2="548" y1="419.6172" y2="439.6172"/><polygon fill="#181818" points="544,429.6172,548,439.6172,552,429.6172,548,433.6172" style="stroke:#181818;stroke-width:1.0;"/><line style="stroke:#181818;stroke-width:1.0;" x1="548" x2="548" y1="200.2891" y2="220.2891"/><polygon fill="#181818" points="544,210.2891,548,220.2891,552,210.2891,548,214.2891" style="stroke:#181818;stroke-width:1.0;"/><line style="stroke:#181818;stroke-width:1.0;" x1="548" x2="548" y1="507.6172" y2="534.9297"/><polygon fill="#181818" points="544,524.9297,548,534.9297,552,524.9297,548,528.9297" style="stroke:#181818;stroke-width:1.0;"/><line style="stroke:#181818;stroke-width:1.0;" x1="643" x2="689" y1="495.6172" y2="495.6172"/><polygon fill="#181818" points="685,544.2422,689,554.2422,693,544.2422,689,548.2422" style="stroke:#181818;stroke-width:1.0;"/><line style="stroke:#181818;stroke-width:1.0;" x1="689" x2="689" y1="495.6172" y2="605.5547"/><line style="stroke:#181818;stroke-width:1.0;" x1="689" x2="560" y1="605.5547" y2="605.5547"/><polygon fill="#181818" points="570,601.5547,560,605.5547,570,609.5547,566,605.5547" style="stroke:#181818;stroke-width:1.0;"/><line style="stroke:#181818;stroke-width:1.0;" x1="548" x2="548" y1="573.5547" y2="593.5547"/><polygon fill="#181818" points="544,583.5547,548,593.5547,552,583.5547,548,587.5547" style="stroke:#181818;stroke-width:1.0;"/><line style="stroke:#181818;stroke-width:1.0;" x1="548" x2="548" y1="463.6172" y2="483.6172"/><polygon fill="#181818" points="544,473.6172,548,483.6172,552,473.6172,548,477.6172" style="stroke:#181818;stroke-width:1.0;"/><line style="stroke:#181818;stroke-width:1.0;" x1="548" x2="548" y1="134.3516" y2="161.6641"/><polygon fill="#181818" points="544,151.6641,548,161.6641,552,151.6641,548,155.6641" style="stroke:#181818;stroke-width:1.0;"/><line style="stroke:#181818;stroke-width:1.0;" x1="624" x2="1058" y1="122.3516" y2="122.3516"/><polygon fill="#181818" points="1054,389.6172,1058,399.6172,1062,389.6172,1058,393.6172" style="stroke:#181818;stroke-width:1.0;"/><line style="stroke:#181818;stroke-width:1.0;" x1="1058" x2="1058" y1="122.3516" y2="649.5547"/><line style="stroke:#181818;stroke-width:1.0;" x1="1058" x2="560" y1="649.5547" y2="649.5547"/><polygon fill="#181818" points="570,645.5547,560,649.5547,570,653.5547,566,649.5547" style="stroke:#181818;stroke-width:1.0;"/><line style="stroke:#181818;stroke-width:1.0;" x1="548" x2="548" y1="617.5547" y2="637.5547"/><polygon fill="#181818" points="544,627.5547,548,637.5547,552,627.5547,548,631.5547" style="stroke:#181818;stroke-width:1.0;"/><line style="stroke:#181818;stroke-width:1.0;" x1="548" x2="548" y1="815.4922" y2="842.8047"/><polygon fill="#181818" points="544,832.8047,548,842.8047,552,832.8047,548,836.8047" style="stroke:#181818;stroke-width:1.0;"/><line style="stroke:#181818;stroke-width:1.0;" x1="648" x2="763" y1="803.4922" y2="803.4922"/><polygon fill="#181818" points="759,852.1172,763,862.1172,767,852.1172,763,856.1172" style="stroke:#181818;stroke-width:1.0;"/><line style="stroke:#181818;stroke-width:1.0;" x1="763" x2="763" y1="803.4922" y2="913.4297"/><line style="stroke:#181818;stroke-width:1.0;" x1="763" x2="560" y1="913.4297" y2="913.4297"/><polygon fill="#181818" points="570,909.4297,560,913.4297,570,917.4297,566,913.4297" style="stroke:#181818;stroke-width:1.0;"/><line style="stroke:#181818;stroke-width:1.0;" x1="548" x2="548" y1="881.4297" y2="901.4297"/><polygon fill="#181818" points="544,891.4297,548,901.4297,552,891.4297,548,895.4297" style="stroke:#181818;stroke-width:1.0;"/><line style="stroke:#181818;stroke-width:1.0;" x1="548" x2="548" y1="771.4922" y2="791.4922"/><polygon fill="#181818" points="544,781.4922,548,791.4922,552,781.4922,548,785.4922" style="stroke:#181818;stroke-width:1.0;"/><line style="stroke:#181818;stroke-width:1.0;" x1="548" x2="548" y1="969.4297" y2="996.7422"/><polygon fill="#181818" points="544,986.7422,548,996.7422,552,986.7422,548,990.7422" style="stroke:#181818;stroke-width:1.0;"/><line style="stroke:#181818;stroke-width:1.0;" x1="648" x2="770.5" y1="957.4297" y2="957.4297"/><polygon fill="#181818" points="766.5,1006.0547,770.5,1016.0547,774.5,1006.0547,770.5,1010.0547" style="stroke:#181818;stroke-width:1.0;"/><line style="stroke:#181818;stroke-width:1.0;" x1="770.5" x2="770.5" y1="957.4297" y2="1067.3672"/><line style="stroke:#181818;stroke-width:1.0;" x1="770.5" x2="560" y1="1067.3672" y2="1067.3672"/><polygon fill="#181818" points="570,1063.3672,560,1067.3672,570,1071.3672,566,1067.3672" style="stroke:#181818;stroke-width:1.0;"/><line style="stroke:#181818;stroke-width:1.0;" x1="548" x2="548" y1="1035.3672" y2="1055.3672"/><polygon fill="#181818" points="544,1045.3672,548,1055.3672,552,1045.3672,548,1049.3672" style="stroke:#181818;stroke-width:1.0;"/><line style="stroke:#181818;stroke-width:1.0;" x1="548" x2="548" y1="925.4297" y2="945.4297"/><polygon fill="#181818" points="544,935.4297,548,945.4297,552,935.4297,548,939.4297" style="stroke:#181818;stroke-width:1.0;"/><line style="stroke:#181818;stroke-width:1.0;" x1="548" x2="548" y1="1123.3672" y2="1150.6797"/><polygon fill="#181818" points="544,1140.6797,548,1150.6797,552,1140.6797,548,1144.6797" style="stroke:#181818;stroke-width:1.0;"/><line style="stroke:#181818;stroke-width:1.0;" x1="632" x2="734" y1="1111.3672" y2="1111.3672"/><polygon fill="#181818" points="730,1159.9922,734,1169.9922,738,1159.9922,734,1163.9922" style="stroke:#181818;stroke-width:1.0;"/><line style="stroke:#181818;stroke-width:1.0;" x1="734" x2="734" y1="1111.3672" y2="1221.3047"/><line style="stroke:#181818;stroke-width:1.0;" x1="734" x2="560" y1="1221.3047" y2="1221.3047"/><polygon fill="#181818" points="570,1217.3047,560,1221.3047,570,1225.3047,566,1221.3047" style="stroke:#181818;stroke-width:1.0;"/><line style="stroke:#181818;stroke-width:1.0;" x1="548" x2="548" y1="1189.3047" y2="1209.3047"/><polygon fill="#181818" points="544,1199.3047,548,1209.3047,552,1199.3047,548,1203.3047" style="stroke:#181818;stroke-width:1.0;"/><line style="stroke:#181818;stroke-width:1.0;" x1="548" x2="548" y1="1079.3672" y2="1099.3672"/><polygon fill="#181818" points="544,1089.3672,548,1099.3672,552,1089.3672,548,1093.3672" style="stroke:#181818;stroke-width:1.0;"/><line style="stroke:#181818;stroke-width:1.0;" x1="548" x2="548" y1="1277.3047" y2="1304.6172"/><polygon fill="#181818" points="544,1294.6172,548,1304.6172,552,1294.6172,548,1298.6172" style="stroke:#181818;stroke-width:1.0;"/><line style="stroke:#181818;stroke-width:1.0;" x1="632" x2="707" y1="1265.3047" y2="1265.3047"/><polygon fill="#181818" points="703,1313.9297,707,1323.9297,711,1313.9297,707,1317.9297" style="stroke:#181818;stroke-width:1.0;"/><line style="stroke:#181818;stroke-width:1.0;" x1="707" x2="707" y1="1265.3047" y2="1375.2422"/><line style="stroke:#181818;stroke-width:1.0;" x1="707" x2="560" y1="1375.2422" y2="1375.2422"/><polygon fill="#181818" points="570,1371.2422,560,1375.2422,570,1379.2422,566,1375.2422" style="stroke:#181818;stroke-width:1.0;"/><line style="stroke:#181818;stroke-width:1.0;" x1="548" x2="548" y1="1343.2422" y2="1363.2422"/><polygon fill="#181818" points="544,1353.2422,548,1363.2422,552,1353.2422,548,1357.2422" style="stroke:#181818;stroke-width:1.0;"/><line style="stroke:#181818;stroke-width:1.0;" x1="548" x2="548" y1="1233.3047" y2="1253.3047"/><polygon fill="#181818" points="544,1243.3047,548,1253.3047,552,1243.3047,548,1247.3047" style="stroke:#181818;stroke-width:1.0;"/><line style="stroke:#181818;stroke-width:1.0;" x1="548" x2="548" y1="705.5547" y2="732.8672"/><polygon fill="#181818" points="544,722.8672,548,732.8672,552,722.8672,548,726.8672" style="stroke:#181818;stroke-width:1.0;"/><line style="stroke:#181818;stroke-width:1.0;" x1="624" x2="792.5" y1="693.5547" y2="693.5547"/><polygon fill="#181818" points="788.5,1050.0547,792.5,1060.0547,796.5,1050.0547,792.5,1054.0547" style="stroke:#181818;stroke-width:1.0;"/><line style="stroke:#181818;stroke-width:1.0;" x1="792.5" x2="792.5" y1="693.5547" y2="1419.2422"/><line style="stroke:#181818;stroke-width:1.0;" x1="792.5" x2="560" y1="1419.2422" y2="1419.2422"/><polygon fill="#181818" points="570,1415.2422,560,1419.2422,570,1423.2422,566,1419.2422" style="stroke:#181818;stroke-width:1.0;"/><line style="stroke:#181818;stroke-width:1.0;" x1="548" x2="548" y1="1387.2422" y2="1407.2422"/><polygon fill="#181818" points="544,1397.2422,548,1407.2422,552,1397.2422,548,1401.2422" style="stroke:#181818;stroke-width:1.0;"/><line style="stroke:#181818;stroke-width:1.0;" x1="548" x2="548" y1="661.5547" y2="681.5547"/><polygon fill="#181818" points="544,671.5547,548,681.5547,552,671.5547,548,675.5547" style="stroke:#181818;stroke-width:1.0;"/><line style="stroke:#181818;stroke-width:1.0;" x1="548" x2="548" y1="74" y2="110.3516"/><polygon fill="#181818" points="544,100.3516,548,110.3516,552,100.3516,548,104.3516" style="stroke:#181818;stroke-width:1.0;"/><line style="stroke:#181818;stroke-width:1.0;" x1="548" x2="548" y1="1431.2422" y2="1441.2422"/><line style="stroke:#181818;stroke-width:1.0;" x1="548" x2="1076" y1="1441.2422" y2="1441.2422"/><polygon fill="#181818" points="1072,747.6797,1076,737.6797,1080,747.6797,1076,743.6797" style="stroke:#181818;stroke-width:1.0;"/><line style="stroke:#181818;stroke-width:1.0;" x1="1076" x2="1076" y1="62" y2="1441.2422"/><line style="stroke:#181818;stroke-width:1.0;" x1="1076" x2="636.5" y1="62" y2="62"/><polygon fill="#181818" points="646.5,58,636.5,62,646.5,66,642.5,62" style="stroke:#181818;stroke-width:1.0;"/><line style="stroke:#0000FF;stroke-width:1.0;" x1="459.5" x2="24" y1="62" y2="62"/><polygon fill="#0000FF" points="20,733.6797,24,743.6797,28,733.6797,24,737.6797" style="stroke:#0000FF;stroke-width:1.0;"/><line style="stroke:#0000FF;stroke-width:1.0;" x1="24" x2="24" y1="62" y2="1453.2422"/><line style="stroke:#0000FF;stroke-width:1.0;" x1="24" x2="548" y1="1453.2422" y2="1453.2422"/><line style="stroke:#0000FF;stroke-width:1.0;" x1="548" x2="548" y1="1453.2422" y2="1473.2422"/><polygon fill="#0000FF" points="544,1463.2422,548,1473.2422,552,1463.2422,548,1467.2422" style="stroke:#0000FF;stroke-width:1.0;"/><line style="stroke:#181818;stroke-width:1.0;" x1="548" x2="548" y1="30" y2="50"/><polygon fill="#181818" points="544,40,548,50,552,40,548,44" style="stroke:#181818;stroke-width:1.0;"/><line style="stroke:#181818;stroke-width:1.0;" x1="548" x2="548" y1="1511.8672" y2="1531.8672"/><polygon fill="#181818" points="544,1521.8672,548,1531.8672,552,1521.8672,548,1525.8672" style="stroke:#181818;stroke-width:1.0;"/><!--SRC=[hPHDI-D06CVlyoc2NXhGWnSF5HJhAXHVaAtYGJmCzgaPcavAPwAhftfOVDrLgMBPTT6BhGTVO0zhiEgdQQRfjt12IvjgpKRY0nc6v_ddcTyp_1cM9ZIBSpYZ9265JPrF69JFu0meFIB_HpmSrYj7rQT23s8juPUsC44sG1aOH8XndEC8hMb41oKYYdVsOQb-bdTAcyBwAyuBLMklQkLjgpoYAeGf4LbMaIA3f9fg-wPedrtLZszhlulYtxROl5Ev1jIjDfHkHCMF4-VdlLSrr2gsMbMj1x6_8qNlzdb7lhyZENr_SgDtYgneFC41z9XkGjGfb-o38oMc6ylfQ3GDwxCvO6ny5IYFJC9wd_mcTBoY3dLq0fr15uRwrguuVWxFy1Lqm0m-J35FoRAH1Flcj7PTSfuBzlVBa31ncZNv77pZ3HP2-Mi6cYGfr47KziTRWPUsWHaPJOp5uwelPm36CGtdkZ7w4hLthvtyU24kjlxhP8-gkvERYg06zPypOvWCFFQSDUIeVTDkDcPoRj2WO_jH1h1m0CeE0tysP-MNytGRWd1Da_atQ0jkDXnPhLonTw_2tjsqiUgzkC1UxYms2d9jl-egwb_iTKzTwXz6_Y1PB4zkGhIsaeHn8_i2]--></g></svg>